<svg xmlns="http://www.w3.org/2000/svg" xmlns:xlink="http://www.w3.org/1999/xlink" width="30" height="27" viewBox="0 0 30 27"><defs><clipPath id="a"><rect width="30" height="27" fill="none"/></clipPath></defs><title>Artboard 1</title><g clip-path="url(#a)"><path d="M10.36,19.72a3.68,3.68,0,0,0-3.69,3.64A3.74,3.74,0,0,0,10.36,27a3.68,3.68,0,0,0,3.69-3.64A3.63,3.63,0,0,0,10.36,19.72Zm0,5.15a1.57,1.57,0,0,1-1.53-1.51,1.59,1.59,0,0,1,1.53-1.6,1.56,1.56,0,1,1,0,3.11Z" fill="#fff" fill-rule="evenodd"/><path d="M22.16,19.72a3.68,3.68,0,0,0-3.69,3.64A3.74,3.74,0,0,0,22.16,27a3.69,3.69,0,0,0,3.7-3.64A3.63,3.63,0,0,0,22.16,19.72Zm0,5.15a1.57,1.57,0,0,1-1.53-1.51,1.59,1.59,0,0,1,1.53-1.6,1.56,1.56,0,1,1,0,3.11Z" fill="#fff" fill-rule="evenodd"/><path d="M28.92,5.51H6.13L5.14.8A1.1,1.1,0,0,0,4.05,0h-3a1,1,0,1,0,0,2H3.24L6.58,17.23a1.06,1.06,0,0,0,1,.8H26.31a1.06,1.06,0,0,0,1-.8L30,6.75A1.08,1.08,0,0,0,28.92,5.51Zm-1.35,2L25.5,15.9h-17L6.58,7.55Z" fill="#fff" fill-rule="evenodd"/></g></svg>