<svg xmlns="http://www.w3.org/2000/svg" width="180.35" height="95.36" viewBox="0 0 180.35 95.36"><title>Artboard 1</title><path d="M78.67,2.85A19,19,0,0,1,92.54,13.24c-.55.43-1.06.89-1.57,1.37A34.44,34.44,0,0,0,79.12,7.78V5A5.67,5.67,0,0,0,78.67,2.85ZM74.41,9.47A31.12,31.12,0,0,1,89.9,17.68a25.07,25.07,0,0,1,7.69,19.67h0a15.83,15.83,0,0,1-7.07,1.56,1.79,1.79,0,0,0-.61,0,16.39,16.39,0,0,1-7-1.9A13.27,13.27,0,0,1,75.5,25.53V13A6.64,6.64,0,0,0,74.41,9.47Zm11.3-7.23c.31-.22.57-.47.9-.67A25.81,25.81,0,0,1,89.55,0c.4-.18.42-.18.65-.27a6.34,6.34,0,0,1,.65.31,28.69,28.69,0,0,1,2.94,1.71,17,17,0,0,1,1.7,1.31,19.13,19.13,0,0,0-4.15,3.23A22.55,22.55,0,0,0,85.71,2.24Zm8.44,5.6a16.73,16.73,0,0,1,7.45-4,5.55,5.55,0,0,0-.31,1.78v3a29.09,29.09,0,0,0-6.16,2.87A19.81,19.81,0,0,0,93.4,8.65C93.65,8.38,93.89,8.1,94.15,7.84Zm.16,7.89a25.77,25.77,0,0,1,11.63-5.36,6.34,6.34,0,0,0-1,3.39V26.32a12,12,0,0,1-4,8.79,27.9,27.9,0,0,0-7.71-18.34C93.55,16.42,93.91,16.06,94.31,15.73Z" fill="#fff"/><path d="M179.41,77.47a.77.77,0,0,0-.72-.43,1.24,1.24,0,0,0-1,.54,11.17,11.17,0,0,1-2.23,2.3,4,4,0,0,1-2.41.69,3,3,0,0,1-2.92-1.66c2.86-.7,4.87-1.63,6.05-2.81a5.85,5.85,0,0,0,1.8-4.28,4.46,4.46,0,0,0-1.26-3.35,4.53,4.53,0,0,0-3.35-1.26,7.37,7.37,0,0,0-4.21,1.26,8.64,8.64,0,0,0-2.88,3.42,10.26,10.26,0,0,0-1,4.61,12.24,12.24,0,0,0,.08,1.39,12.6,12.6,0,0,1-2.19,1.56,8,8,0,0,1-3.68,1.12,3.54,3.54,0,0,1-3.42-1.66c2.84-.7,4.84-1.63,6-2.81a5.85,5.85,0,0,0,1.8-4.28,4.46,4.46,0,0,0-1.26-3.35,4.53,4.53,0,0,0-3.35-1.26,7.35,7.35,0,0,0-4.21,1.26,8.48,8.48,0,0,0-2.88,3.42,9.69,9.69,0,0,0-.78,2.21l-.92.09c-.67,0-1.41.08-2.23.08a3.1,3.1,0,0,0-2.3,1,3.34,3.34,0,0,0-1,2.48,3.42,3.42,0,0,0,.07.8c.22,1.08.42,2.47.61,4.17a48.48,48.48,0,0,1,.29,5.37,9.29,9.29,0,0,1-.32,2.84q-.33.9-.87.9c-.38,0-.66-1.31-.83-3.92s-.25-5.13-.25-7.6c0-1.73.09-3.4.25-5a15.57,15.57,0,0,0,5.51-5.15,27.22,27.22,0,0,0,3.53-7.38,24.82,24.82,0,0,0,1.19-7.09,7.52,7.52,0,0,0-1-4.07,2.94,2.94,0,0,0-2.63-1.51q-2.6,0-4.86,3.24a30.53,30.53,0,0,0-3.82,8.53,67,67,0,0,0-2.23,11.23h-1.37a5.28,5.28,0,0,0-3.31,1,3.18,3.18,0,0,0-1.22,2.56,2.9,2.9,0,0,0,.07.76,38,38,0,0,1,.61,4.39,59.85,59.85,0,0,1,.29,6.23,8.92,8.92,0,0,1-.33,2.84c-.21.6-.5.9-.86.9s-.66-1.31-.83-3.92-.25-5.13-.25-7.6q0-3,.32-6.16a33.53,33.53,0,0,0,7.42-10.08,21.88,21.88,0,0,0,2.12-8.74,6.73,6.73,0,0,0-.93-3.86,2.85,2.85,0,0,0-2.52-1.36c-2.09,0-4,1.54-5.62,4.64a42.92,42.92,0,0,0-3.89,11.77c-.43,2.25-.75,4.48-1,6.7a20.54,20.54,0,0,1-3,.47,7.94,7.94,0,0,0-2-4.65A5.55,5.55,0,0,0,119,67.17a7.14,7.14,0,0,0-4.07,1.23A8,8,0,0,0,112,71.75a10.79,10.79,0,0,0-1,4.86,9.76,9.76,0,0,0,.12,1.44,35.58,35.58,0,0,1-3.78,1.22,20.18,20.18,0,0,1-4.72.58c-3.14,0-5.52-.78-7.12-2.34a9,9,0,0,1-2.42-6.7,17.38,17.38,0,0,1,1.34-7.13,10.76,10.76,0,0,1,3.49-4.57,7.68,7.68,0,0,1,4.53-1.55q3.49,0,3.5,3.28a9.76,9.76,0,0,1-.22,1.73,7.84,7.84,0,0,0-.14,1.18,1.67,1.67,0,0,0,.57,1.37,2.47,2.47,0,0,0,1.59.47,2.38,2.38,0,0,0,2.19-1.33,6.86,6.86,0,0,0,.79-3.53,7.06,7.06,0,0,0-2-5.26,8,8,0,0,0-5.91-2,13.38,13.38,0,0,0-7.59,2.27,15.55,15.55,0,0,0-5.44,6.33,21.39,21.39,0,0,0-2,9.4,13,13,0,0,0,1.69,6.69,11.45,11.45,0,0,0,4.86,4.47,16.87,16.87,0,0,0,7.46,1.55,28.61,28.61,0,0,0,5.22-.51A25.65,25.65,0,0,0,112.32,82l.37-.19a6.61,6.61,0,0,0,1.39,1.3,6.45,6.45,0,0,0,3.71,1,6.67,6.67,0,0,0,4.57-1.8,9.18,9.18,0,0,0,2.7-4.86,18.38,18.38,0,0,0,3-.38c0,1.16-.08,2.32-.08,3.47A42.2,42.2,0,0,0,129,91.69c.74,2.45,2,3.67,3.7,3.67a3.84,3.84,0,0,0,3.35-2,10.94,10.94,0,0,0,1.33-5.94c0-2-.07-3.8-.21-5.44s-.3-3.33-.54-5.11c.41,0,.93,0,1.58,0,.48,0,.83,0,1,0-.08,1.3-.11,2.58-.11,3.85a42.2,42.2,0,0,0,1.08,11.09q1.11,3.68,3.71,3.67a3.84,3.84,0,0,0,3.34-2,10.93,10.93,0,0,0,1.34-5.94,45.64,45.64,0,0,0-.26-4.82,35.8,35.8,0,0,0-.61-4.36l2,.11a11,11,0,0,0,1.47-.1,6.89,6.89,0,0,0,1.95,3.91,8,8,0,0,0,5.87,2.06,10.34,10.34,0,0,0,5.18-1.37,16.28,16.28,0,0,0,2.27-1.52,7.25,7.25,0,0,0,.63.83,7,7,0,0,0,5.37,2.06,8.13,8.13,0,0,0,3.89-.87,6.94,6.94,0,0,0,2.66-2.41,4,4,0,0,0,.61-2.23A2.06,2.06,0,0,0,179.41,77.47ZM146,62.82a51.92,51.92,0,0,1,2-6.59c.69-1.68,1.28-2.52,1.76-2.52s.9.73.9,2.2a22.86,22.86,0,0,1-.72,5.36,22.7,22.7,0,0,1-2.12,5.65,13.12,13.12,0,0,1-3.46,4.32Q145,66.89,146,62.82Zm-11.19-1.08a44.33,44.33,0,0,1,1.72-5.83c.6-1.47,1.12-2.2,1.55-2.2.22,0,.4.16.54.47a3.28,3.28,0,0,1,.22,1.37,20.2,20.2,0,0,1-1.41,6.91,23,23,0,0,1-4.1,7Q133.93,65.37,134.79,61.74ZM120.06,79.41a2.57,2.57,0,0,1-2,.94,2.3,2.3,0,0,1-1.84-1,5.17,5.17,0,0,1-.76-3,6.9,6.9,0,0,1,.94-3.89,2.87,2.87,0,0,1,2.41-1.4H119a6.4,6.4,0,0,0-.11,1.15,6.05,6.05,0,0,0,.58,2.59,5,5,0,0,0,1.73,2A5.11,5.11,0,0,1,120.06,79.41ZM155.49,76a7.32,7.32,0,0,1,.9-3.74,2.66,2.66,0,0,1,2.27-1.55,1.22,1.22,0,0,1,1,.43,1.43,1.43,0,0,1,.4,1.08,3,3,0,0,1-1.22,2.34,8.2,8.2,0,0,1-3.35,1.51Zm14.13,0a7.32,7.32,0,0,1,.9-3.74,2.67,2.67,0,0,1,2.27-1.55,1.24,1.24,0,0,1,1,.43,1.46,1.46,0,0,1,.39,1.08A3,3,0,0,1,173,74.59a8.14,8.14,0,0,1-3.35,1.51Z" fill="#fff"/><path d="M75.76,77a1.25,1.25,0,0,0-1,.54,11.17,11.17,0,0,1-2.23,2.3,4,4,0,0,1-2.41.69,3,3,0,0,1-2.92-1.66c2.86-.7,4.88-1.63,6-2.81a5.85,5.85,0,0,0,1.8-4.28,4.46,4.46,0,0,0-1.26-3.35,4.52,4.52,0,0,0-3.35-1.26,7.37,7.37,0,0,0-4.21,1.26,8.64,8.64,0,0,0-2.88,3.42,10.39,10.39,0,0,0-1,4.61,12.42,12.42,0,0,0,.1,1.53,8.35,8.35,0,0,1-2.76,2.07,9.12,9.12,0,0,0,.07-1,4.42,4.42,0,0,0-.61-2.3,19.61,19.61,0,0,0-1.73-2.6,14.31,14.31,0,0,1-1.18-1.62,2.45,2.45,0,0,1-.36-1.18,5.13,5.13,0,0,1,.64-2.2,5.1,5.1,0,0,0,.4-.94,2.43,2.43,0,0,0,.14-.68.61.61,0,0,0-.39-.58,3.81,3.81,0,0,0-1.41-.18A2.77,2.77,0,0,0,52.4,68.4q-.8,1.88-1.62,3.63c-.55,1.16-1,2.08-1.44,2.78a46.84,46.84,0,0,1-3,4l-.47.57a2.1,2.1,0,0,0-.5,1.34,1.59,1.59,0,0,0,.36,1,1.22,1.22,0,0,0,.94.4A1.92,1.92,0,0,0,48,81.54a23.92,23.92,0,0,0,2.38-2.67,22.46,22.46,0,0,0,2.23-3.52c.34.38.7.84,1.08,1.36a7.63,7.63,0,0,1,.94,1.59,4.43,4.43,0,0,1,.43,1.76l-1-.11a6.46,6.46,0,0,0-1.08-.1,2.73,2.73,0,0,0-2,.68,2.25,2.25,0,0,0-.68,1.62,2.53,2.53,0,0,0,1,1.94A4.27,4.27,0,0,0,54.2,85a5.09,5.09,0,0,0,3.42-1.23,9.65,9.65,0,0,0,4-.86,8.53,8.53,0,0,0,2-1.49,8.07,8.07,0,0,0,.58.73,7,7,0,0,0,5.36,2.06,8.13,8.13,0,0,0,3.89-.87,6.94,6.94,0,0,0,2.66-2.41,4,4,0,0,0,.61-2.23,2.14,2.14,0,0,0-.28-1.19A.79.79,0,0,0,75.76,77Zm-9.08-1a7.32,7.32,0,0,1,.9-3.74,2.67,2.67,0,0,1,2.27-1.55,1.24,1.24,0,0,1,1,.43,1.46,1.46,0,0,1,.4,1.08A3,3,0,0,1,70,74.59a8.08,8.08,0,0,1-3.35,1.51Z" fill="#fff"/><path d="M42.24,68.25a6.1,6.1,0,0,0-3.64-1.08,6.78,6.78,0,0,0-4,1.23,8.23,8.23,0,0,0-2.8,3.35,11.06,11.06,0,0,0-1,4.86,9.72,9.72,0,0,0,.2,2c-.23.21-.45.4-.65.56a3.67,3.67,0,0,1-2.19.75,3.16,3.16,0,0,1-2.31-1,12.21,12.21,0,0,1-2-3.16A12.06,12.06,0,0,0,22,72.65a5.37,5.37,0,0,0-2.66-1.52A12.88,12.88,0,0,0,24,68.94a9.78,9.78,0,0,0,2.85-3.39,8.83,8.83,0,0,0,1-4,7.72,7.72,0,0,0-1.15-4.14,7.52,7.52,0,0,0-3.46-2.88,14.33,14.33,0,0,0-5.8-1,16.44,16.44,0,0,0-8.78,2.34,15.49,15.49,0,0,0-5.9,6.7A24,24,0,0,0,.65,73a15.49,15.49,0,0,0,1,5.79,9.28,9.28,0,0,0,2.84,4,6.94,6.94,0,0,0,4.28,1.41A4.28,4.28,0,0,0,12.06,83a6.47,6.47,0,0,0,1.44-3.38c.05-.26.17-1,.36-2.2.46-2.66.73-4.24.83-4.75a3.17,3.17,0,0,1,1.62.61A5.62,5.62,0,0,1,17.68,75c.45.76,1.08,2,1.87,3.6a12,12,0,0,0,3.09,4.32,6.43,6.43,0,0,0,4,1.26,7.7,7.7,0,0,0,4.18-1.12,14.91,14.91,0,0,0,1.63-1.28,6.75,6.75,0,0,0,1.37,1.35,6.19,6.19,0,0,0,3.63,1A6.92,6.92,0,0,0,41.38,83a8.5,8.5,0,0,0,2.84-3.35,11.05,11.05,0,0,0,1-4.9,9.17,9.17,0,0,0-.75-3.7A6.46,6.46,0,0,0,42.24,68.25Zm-26.87.65,1.08-6a3.35,3.35,0,0,0,0-.62c0-1.22-.69-1.83-2-1.83a2.73,2.73,0,0,0-3,2.34q-.5,2.55-1.08,6.08h-.9a1.88,1.88,0,0,0-1.29.51,1.76,1.76,0,0,0-.54,1.36A2.09,2.09,0,0,0,8,72.07a2.08,2.08,0,0,0,1.69.58l-1,5.4a3.86,3.86,0,0,1-.51,1.51.86.86,0,0,1-.75.47,1.85,1.85,0,0,1-1.3-.83A6.89,6.89,0,0,1,5,76.71a14.72,14.72,0,0,1-.47-4A21,21,0,0,1,6.05,64.4a11.26,11.26,0,0,1,4.1-5.18,10.94,10.94,0,0,1,6.19-1.77,6.92,6.92,0,0,1,4.54,1.3,4.4,4.4,0,0,1,1.55,3.56,6,6,0,0,1-1,3.35A6.5,6.5,0,0,1,18.9,68,8.55,8.55,0,0,1,15.37,68.9ZM39.9,79a2.41,2.41,0,0,1-2,1.33,2.18,2.18,0,0,1-1.8-1,5.12,5.12,0,0,1-.72-3,7.26,7.26,0,0,1,.83-3.89,2.53,2.53,0,0,1,2.16-1.33,2.09,2.09,0,0,1,1.72,1,5.13,5.13,0,0,1,.72,3A7.17,7.17,0,0,1,39.9,79Z" fill="#fff"/></svg>