<svg xmlns="http://www.w3.org/2000/svg" width="329.3" height="100.92" viewBox="0 0 329.3 100.92"><title>Artboard 1</title><path d="M153.14,2.85A19,19,0,0,1,167,13.24c-.54.43-1.06.89-1.57,1.37a34.26,34.26,0,0,0-11.85-6.83V5A5.68,5.68,0,0,0,153.14,2.85Zm-4.25,6.62a31.09,31.09,0,0,1,15.48,8.21,25,25,0,0,1,7.69,19.67h0A15.8,15.8,0,0,1,165,38.92a1.73,1.73,0,0,0-.6,0,16.35,16.35,0,0,1-7-1.9A13.28,13.28,0,0,1,150,25.53V13A6.64,6.64,0,0,0,148.89,9.47Zm11.29-7.23c.31-.22.58-.47.9-.67A27.61,27.61,0,0,1,164,0c.41-.18.43-.18.66-.27.22.1.24.1.64.31a27.66,27.66,0,0,1,2.94,1.71A17,17,0,0,1,170,3.06a19.13,19.13,0,0,0-4.15,3.23A22.37,22.37,0,0,0,160.18,2.24Zm8.45,5.6a16.73,16.73,0,0,1,7.45-4,5.29,5.29,0,0,0-.32,1.78v3a29.09,29.09,0,0,0-6.16,2.87,20.85,20.85,0,0,0-1.73-2.78C168.12,8.38,168.36,8.1,168.63,7.84Zm.15,7.89a25.82,25.82,0,0,1,11.63-5.36,6.34,6.34,0,0,0-1,3.39V26.32a12,12,0,0,1-4,8.79,27.94,27.94,0,0,0-7.7-18.34C168,16.42,168.39,16.06,168.78,15.73Z" fill="#2e241f"/><path d="M75.87,77.35a1.24,1.24,0,0,0-1,.55,11.64,11.64,0,0,1-2.25,2.32,4,4,0,0,1-2.44.69,3.06,3.06,0,0,1-3-1.67c2.89-.7,4.93-1.65,6.11-2.83a5.9,5.9,0,0,0,1.82-4.33,4.48,4.48,0,0,0-1.27-3.38,4.58,4.58,0,0,0-3.38-1.28,7.45,7.45,0,0,0-4.26,1.28,8.73,8.73,0,0,0-2.91,3.45,10.44,10.44,0,0,0-1,4.66,12.88,12.88,0,0,0,.1,1.55,8.45,8.45,0,0,1-2.78,2.08,9.12,9.12,0,0,0,.07-1,4.53,4.53,0,0,0-.62-2.32,20.91,20.91,0,0,0-1.74-2.62,14.12,14.12,0,0,1-1.2-1.64,2.43,2.43,0,0,1-.37-1.2,5.21,5.21,0,0,1,.66-2.22,5.41,5.41,0,0,0,.4-.94,3,3,0,0,0,.14-.69.62.62,0,0,0-.4-.59A3.83,3.83,0,0,0,55.15,67a2.81,2.81,0,0,0-2.87,1.6c-.53,1.26-1.08,2.49-1.64,3.68s-1,2.09-1.45,2.8a49.46,49.46,0,0,1-3,4.07l-.47.58a2.07,2.07,0,0,0-.51,1.35,1.59,1.59,0,0,0,.36,1.05,1.22,1.22,0,0,0,1,.4,2,2,0,0,0,1.38-.65,26.38,26.38,0,0,0,2.4-2.69,23.89,23.89,0,0,0,2.26-3.57c.33.39.7.85,1.09,1.38a8.17,8.17,0,0,1,.94,1.6A4.58,4.58,0,0,1,55,80.41l-1-.11a5.81,5.81,0,0,0-1.09-.11,2.77,2.77,0,0,0-2,.69,2.22,2.22,0,0,0-.69,1.63,2.57,2.57,0,0,0,1,2,4.36,4.36,0,0,0,2.91.87,5.17,5.17,0,0,0,3.45-1.23,9.85,9.85,0,0,0,4.08-.88,8.79,8.79,0,0,0,2-1.5,5.9,5.9,0,0,0,.58.74,7,7,0,0,0,5.41,2.07,8.26,8.26,0,0,0,3.93-.87,7,7,0,0,0,2.69-2.44A4,4,0,0,0,76.89,79a2.17,2.17,0,0,0-.29-1.2A.8.8,0,0,0,75.87,77.35Zm-9.16-1a7.35,7.35,0,0,1,.91-3.78A2.7,2.7,0,0,1,69.91,71a1.25,1.25,0,0,1,1,.43,1.51,1.51,0,0,1,.4,1.09,3,3,0,0,1-1.24,2.37,8.22,8.22,0,0,1-3.38,1.53Z" fill="#2e241f"/><path d="M329,67.64a2.29,2.29,0,0,0-1.16-.22,2.36,2.36,0,0,0-2.7,2,41.26,41.26,0,0,1-1.81,5.45,14.79,14.79,0,0,1-1.75,3.31c-.53.73-1,1.09-1.35,1.09s-.76-.46-.76-1.38a13.94,13.94,0,0,1,.22-2.22c.14-.92.31-1.87.51-2.87.14-.73.34-1.54.58-2.44a14.14,14.14,0,0,0,.4-2,.9.9,0,0,0-.33-.76,1.68,1.68,0,0,0-1.09-.26,3.55,3.55,0,0,0-2.07.48,3,3,0,0,0-1,1.56,28.54,28.54,0,0,0-1.53,8.35,16.47,16.47,0,0,1-2,1.9,4.25,4.25,0,0,1-2.62.84,2,2,0,0,1-1.52-.62,4.29,4.29,0,0,1-.84-2.14,55.91,55.91,0,0,0,6.51-11.31,26.49,26.49,0,0,0,2.4-10,8.65,8.65,0,0,0-1-4.62,3,3,0,0,0-2.73-1.64q-3.09,0-5.34,4.08A34.76,34.76,0,0,0,304.6,64a52,52,0,0,0-1.13,10.11,21,21,0,0,0,.24,3.19,26.9,26.9,0,0,1-2.24,2.38,2.78,2.78,0,0,1-1.71.87c-.7,0-1.05-.48-1.05-1.45a25.31,25.31,0,0,1,.69-4.19,29.54,29.54,0,0,0,.8-5.12,2.09,2.09,0,0,0-2.37-2.37,5.39,5.39,0,0,0-2.65.84,10.59,10.59,0,0,0-2.91,2.8,20.84,20.84,0,0,0-2.65,5c0-1.34,0-2.63.1-3.89a49.88,49.88,0,0,0,7-9.2,16.06,16.06,0,0,0,2.14-7.64,6.09,6.09,0,0,0-1.05-3.71,3.15,3.15,0,0,0-2.69-1.46c-2.09,0-3.88,1.39-5.39,4.15a35.94,35.94,0,0,0-3.38,10.18,64.14,64.14,0,0,0-1.13,11.68v1.39a19,19,0,0,1-2.12,2,4.33,4.33,0,0,1-2.76.94A3.08,3.08,0,0,1,277.48,79q-.87-1.51-.87-5.31c0-.67,0-1.62.07-2.83h4.44q4.11,0,4.11-2.51a1.35,1.35,0,0,0-.25-1,1.16,1.16,0,0,0-.84-.25h-4.07a12.74,12.74,0,0,0,4.72-9.82,6.08,6.08,0,0,0-.87-3.38,2.71,2.71,0,0,0-2.4-1.35,5.3,5.3,0,0,0-3.89,2,16.53,16.53,0,0,0-3.06,5.27,36.3,36.3,0,0,0-1.89,7.31h-2.07c-1.09,0-1.64.68-1.64,2a1.88,1.88,0,0,0,.37,1.28,2.13,2.13,0,0,0,1.49.4h1.42c-.08,1.09-.11,2.17-.11,3.23,0,.79,0,1.52.1,2.22a1.4,1.4,0,0,0-.61.44,30.69,30.69,0,0,1-2.7,2.91,2.78,2.78,0,0,1-1.7.87c-.71,0-1.06-.48-1.06-1.45a25.31,25.31,0,0,1,.69-4.19,28.56,28.56,0,0,0,.8-5.12,2.09,2.09,0,0,0-2.36-2.37,5.42,5.42,0,0,0-2.66.84,10.87,10.87,0,0,0-2.91,2.8A20.91,20.91,0,0,0,257,76.15a25.44,25.44,0,0,1,.37-2.69c.14-.73.34-1.58.58-2.55a14,14,0,0,0,.54-2.61.76.76,0,0,0-.29-.7,2.05,2.05,0,0,0-1-.18,3.73,3.73,0,0,0-2.1.51,2.71,2.71,0,0,0-1.06,1.53,29.45,29.45,0,0,0-1,4.1,20.07,20.07,0,0,1-2.9.45,8,8,0,0,0-2-4.7,5.58,5.58,0,0,0-4.44-1.92,7.29,7.29,0,0,0-4.11,1.23A8.25,8.25,0,0,0,236.74,72a11.07,11.07,0,0,0-1.05,4.91,9.85,9.85,0,0,0,.1,1.35,9.25,9.25,0,0,1-1.35,1.16,3.93,3.93,0,0,1-2.33.8,2.63,2.63,0,0,1-2-.76,3.32,3.32,0,0,1-.69-2.29,16.49,16.49,0,0,1,.36-3.13L232,63.64a19.37,19.37,0,0,0,.47-3.89,6.9,6.9,0,0,0-1.38-4.58,4.74,4.74,0,0,0-3.89-1.64,8.18,8.18,0,0,0-5.6,2.18q-2.43,2.19-4.25,7.2a17.65,17.65,0,0,0,.32-3,7.25,7.25,0,0,0-1.38-4.73,4.51,4.51,0,0,0-3.71-1.67,8.24,8.24,0,0,0-5.67,2.36q-2.58,2.34-4.66,8.26c.05-.22.13-.61.22-1.16s.21-1.28.33-2.15a17.9,17.9,0,0,0,.18-2.33,5.55,5.55,0,0,0-1.09-3.71,3.76,3.76,0,0,0-3-1.27,8,8,0,0,0-4.3,1.35,13.57,13.57,0,0,0-3.89,3.74,7.39,7.39,0,0,0-.8,1.38,3.46,3.46,0,0,0-.22,1.17A1.93,1.93,0,0,0,190,62.3a1.19,1.19,0,0,0,.91.47,1.4,1.4,0,0,0,1.12-.69A15,15,0,0,1,194.94,59a4.2,4.2,0,0,1,2.3-1c.8,0,1.2.55,1.2,1.64a36,36,0,0,1-.33,4.36c-.37,2.79-.86,6.09-1.49,9.89-.37,2.06-.63,3.69-.8,4.88a23.1,23.1,0,0,0-.22,2.87,3.38,3.38,0,0,0,.58,2.29,2.65,2.65,0,0,0,1.93.58,2.1,2.1,0,0,0,1.89-.73,6.23,6.23,0,0,0,.76-2.58,75.57,75.57,0,0,1,3-13.89c1.22-3.44,2.45-5.83,3.71-7.16a5.25,5.25,0,0,1,3.68-2,1.87,1.87,0,0,1,1.56.65,3.19,3.19,0,0,1,.55,2,81.41,81.41,0,0,1-1.68,11.35q-.62,3.27-1,5.71a24.29,24.29,0,0,0-.4,3.89,3.28,3.28,0,0,0,.54,2.18,2.47,2.47,0,0,0,1.82.58,2.55,2.55,0,0,0,2-.73,5.78,5.78,0,0,0,.9-2.94,75.29,75.29,0,0,1,2.73-13.24,22.76,22.76,0,0,1,3.57-7.27q1.89-2.22,3.6-2.22a1.62,1.62,0,0,1,1.38.65,3,3,0,0,1,.51,1.89,11,11,0,0,1-.11,1.5c-.07.48-.17,1-.29,1.56s-.21,1-.26,1.16l-1.45,6.66a32.33,32.33,0,0,0-.87,6.22A6.91,6.91,0,0,0,226,82.73a6.36,6.36,0,0,0,4.84,1.82,7.78,7.78,0,0,0,3.89-1,12.13,12.13,0,0,0,2.32-1.81,6.77,6.77,0,0,0,1.77,1.81,6.55,6.55,0,0,0,3.74,1,6.7,6.7,0,0,0,4.62-1.82,9.12,9.12,0,0,0,2.73-4.91,18.09,18.09,0,0,0,2.84-.34c0,.32,0,.64,0,1a14.52,14.52,0,0,0,.54,4.66,2,2,0,0,0,2,1.45,2.06,2.06,0,0,0,1.64-.58,5.74,5.74,0,0,0,.95-2.33,26.12,26.12,0,0,1,1.41-4.22,20.9,20.9,0,0,1,1.75-3.2q.87-1.23,1.35-1.23c.26,0,.4.19.4.58a18.45,18.45,0,0,1-.48,3.16,22.74,22.74,0,0,0-.51,3.64,4.65,4.65,0,0,0,.95,3.13,3.57,3.57,0,0,0,2.8,1,6.92,6.92,0,0,0,4.07-1.24,15.38,15.38,0,0,0,3.38-3.16A.94.94,0,0,0,273,80a6.4,6.4,0,0,0,6.54,4.52,7.42,7.42,0,0,0,4.25-1.24,12.37,12.37,0,0,0,1.38-1.06,5.44,5.44,0,0,0,.28,1.54,1.44,1.44,0,0,0,1.45.76,3.29,3.29,0,0,0,3.42-2.91,27.16,27.16,0,0,1,1.42-4.22,16.75,16.75,0,0,1,1.75-3.2c.58-.82,1-1.23,1.34-1.23s.4.19.4.58a19.19,19.19,0,0,1-.47,3.16,22.74,22.74,0,0,0-.51,3.64,4.65,4.65,0,0,0,1,3.13,3.57,3.57,0,0,0,2.8,1,6.73,6.73,0,0,0,4-1.24A17.3,17.3,0,0,0,304.71,81c.1.22.18.46.29.66a5.08,5.08,0,0,0,4.76,2.91,7.19,7.19,0,0,0,4.15-1.24,14.26,14.26,0,0,0,1.65-1.3,5.48,5.48,0,0,0,.54,1,3.18,3.18,0,0,0,2.69,1.49,3.86,3.86,0,0,0,2.76-1.34,9.57,9.57,0,0,0,2-4c-.22,1.67-.42,3-.59,3.85l-.1.84a49.27,49.27,0,0,0-6,5.27A16.43,16.43,0,0,0,314,93.28a8.8,8.8,0,0,0-.76,3.49,3.93,3.93,0,0,0,1.16,3,4.08,4.08,0,0,0,3,1.17c2.62,0,4.71-1.82,6.29-5.46a59.63,59.63,0,0,0,3.71-14.8c.1-.63.42-2.65,1-6.07q.94-5.36.95-6.22A.82.82,0,0,0,329,67.64Zm-37.65-6.91a31.11,31.11,0,0,1,1.57-5c.53-1.26,1-1.89,1.45-1.89s.56.2.73.61a4.94,4.94,0,0,1,.25,1.79,13.31,13.31,0,0,1-1.49,5.67,25.4,25.4,0,0,1-3.71,5.78Q290.6,63.89,291.32,60.73ZM278,61.28a20.92,20.92,0,0,1,1.27-3.79c.46-.92.88-1.38,1.24-1.38.53,0,.8.72.8,2.15a10,10,0,0,1-1.09,4.22,12.22,12.22,0,0,1-3.2,4.14A50.88,50.88,0,0,1,278,61.28ZM244.85,79.75a2.57,2.57,0,0,1-2,1A2.28,2.28,0,0,1,241,79.64a5.14,5.14,0,0,1-.76-3,6.92,6.92,0,0,1,.94-3.93,2.89,2.89,0,0,1,2.44-1.42h.18a6.62,6.62,0,0,0-.11,1.17,6,6,0,0,0,.58,2.61A5.21,5.21,0,0,0,246,77,5.15,5.15,0,0,1,244.85,79.75ZM308.78,64.3a49.75,49.75,0,0,1,1.85-7.5c.71-2,1.34-3,1.89-3s1,.92,1,2.76A23.73,23.73,0,0,1,312,64.37a47.65,47.65,0,0,1-4.11,8.51A53.56,53.56,0,0,1,308.78,64.3Zm11,31c-.75,1.41-1.43,2.11-2,2.11a.87.87,0,0,1-.8-.4,2.08,2.08,0,0,1-.22-1A6.67,6.67,0,0,1,318,92.55a21.36,21.36,0,0,1,4.07-4.29A30.39,30.39,0,0,1,319.8,95.28Z" fill="#2e241f"/><path d="M179.86,77.35a1.24,1.24,0,0,0-1,.55,11.37,11.37,0,0,1-2.26,2.32,4,4,0,0,1-2.43.69,3,3,0,0,1-2.95-1.67c2.89-.7,4.92-1.65,6.11-2.83a5.94,5.94,0,0,0,1.82-4.33,4.52,4.52,0,0,0-1.27-3.38,4.59,4.59,0,0,0-3.39-1.28,7.44,7.44,0,0,0-4.25,1.28,8.57,8.57,0,0,0-2.91,3.45,10.45,10.45,0,0,0-1.06,4.66,12.69,12.69,0,0,0,.09,1.41,12.66,12.66,0,0,1-2.22,1.57,7.91,7.91,0,0,1-3.71,1.12A3.56,3.56,0,0,1,157,79.24c2.86-.7,4.89-1.65,6.07-2.83a5.9,5.9,0,0,0,1.82-4.33,4.48,4.48,0,0,0-1.27-3.38,4.58,4.58,0,0,0-3.38-1.28A7.45,7.45,0,0,0,156,68.7a8.73,8.73,0,0,0-2.91,3.45,10.38,10.38,0,0,0-.79,2.23l-.92.1c-.68,0-1.43.07-2.25.07a3.13,3.13,0,0,0-2.33,1.06,3.76,3.76,0,0,0-.95,3.3c.22,1.1.43,2.5.62,4.22a47,47,0,0,1,.29,5.42,9.43,9.43,0,0,1-.32,2.87c-.22.61-.51.91-.88.91s-.66-1.32-.83-4-.26-5.18-.26-7.67a48.66,48.66,0,0,1,.26-5.06,15.76,15.76,0,0,0,5.56-5.2A27.29,27.29,0,0,0,153.83,63a25,25,0,0,0,1.2-7.17,7.49,7.49,0,0,0-1-4.11,3,3,0,0,0-2.65-1.53c-1.75,0-3.38,1.1-4.91,3.28a30.62,30.62,0,0,0-3.86,8.62,67.35,67.35,0,0,0-2.25,11.34H139a5.38,5.38,0,0,0-3.35,1.06,3.22,3.22,0,0,0-1.24,2.58,2.82,2.82,0,0,0,.08.76,39.15,39.15,0,0,1,.62,4.44,61.22,61.22,0,0,1,.29,6.29,9.05,9.05,0,0,1-.33,2.87c-.22.61-.51.91-.87.91s-.67-1.32-.84-4-.26-5.18-.26-7.67a60.5,60.5,0,0,1,.33-6.22,34.2,34.2,0,0,0,7.49-10.18,22.26,22.26,0,0,0,2.15-8.84,6.71,6.71,0,0,0-.95-3.89,2.88,2.88,0,0,0-2.54-1.39q-3.17,0-5.67,4.7A42.45,42.45,0,0,0,130,66.77c-.44,2.27-.77,4.52-1,6.77a20.67,20.67,0,0,1-3,.47,8,8,0,0,0-2-4.7,5.58,5.58,0,0,0-4.44-1.92,7.29,7.29,0,0,0-4.11,1.23,8.16,8.16,0,0,0-2.9,3.38,10.94,10.94,0,0,0-1.06,4.91,9.8,9.8,0,0,0,.12,1.46,35,35,0,0,1-3.82,1.24,20.58,20.58,0,0,1-4.76.58q-4.77,0-7.21-2.37a9.07,9.07,0,0,1-2.43-6.76,17.69,17.69,0,0,1,1.34-7.2,11,11,0,0,1,3.53-4.62,7.76,7.76,0,0,1,4.58-1.56c2.36,0,3.53,1.1,3.53,3.31a9.07,9.07,0,0,1-.22,1.74,9.68,9.68,0,0,0-.14,1.2,1.65,1.65,0,0,0,.58,1.38,2.64,2.64,0,0,0,3.82-.87,7,7,0,0,0,.8-3.56,7.09,7.09,0,0,0-2-5.31,8.07,8.07,0,0,0-6-2,13.58,13.58,0,0,0-7.68,2.29A15.73,15.73,0,0,0,90,62.22a21.65,21.65,0,0,0-2,9.49,13.12,13.12,0,0,0,1.71,6.77A11.55,11.55,0,0,0,94.63,83a17,17,0,0,0,7.53,1.56,29.05,29.05,0,0,0,5.27-.51,25.45,25.45,0,0,0,5.38-1.67l.37-.18a6.19,6.19,0,0,0,5.15,2.36A6.7,6.7,0,0,0,123,82.73a9.12,9.12,0,0,0,2.73-4.91,16.73,16.73,0,0,0,3-.38c-.06,1.17-.08,2.34-.08,3.51a42.48,42.48,0,0,0,1.09,11.2q1.13,3.7,3.74,3.71a3.89,3.89,0,0,0,3.38-2.07,11,11,0,0,0,1.35-6c0-2-.07-3.84-.22-5.49s-.3-3.37-.54-5.17c.41,0,.94,0,1.6,0,.48,0,.83,0,1.05,0-.07,1.31-.11,2.61-.11,3.89A42.91,42.91,0,0,0,141,92.15q1.13,3.7,3.75,3.71a3.89,3.89,0,0,0,3.38-2.07,11,11,0,0,0,1.35-6,46.93,46.93,0,0,0-.26-4.88,37,37,0,0,0-.62-4.4c1.24.08,1.92.11,2,.11a11,11,0,0,0,1.48-.1,7,7,0,0,0,2,4,8.08,8.08,0,0,0,5.92,2.07,10.45,10.45,0,0,0,5.24-1.38,16.86,16.86,0,0,0,2.29-1.53,6.43,6.43,0,0,0,.64.84,7,7,0,0,0,5.42,2.07,8.26,8.26,0,0,0,3.93-.87,7.1,7.1,0,0,0,2.69-2.44,4,4,0,0,0,.62-2.25,2.17,2.17,0,0,0-.29-1.2A.81.81,0,0,0,179.86,77.35ZM146.82,63a51.13,51.13,0,0,1,2-6.66c.7-1.7,1.3-2.54,1.78-2.54s.91.73.91,2.21a23.26,23.26,0,0,1-.72,5.42,23.61,23.61,0,0,1-2.15,5.71,13.4,13.4,0,0,1-3.49,4.37C145.62,68.56,146.16,65.73,146.82,63ZM135.51,61.9a45.43,45.43,0,0,1,1.74-5.9c.61-1.48,1.13-2.21,1.56-2.21.22,0,.4.15.55.47a3.3,3.3,0,0,1,.22,1.38,20.31,20.31,0,0,1-1.42,7A22.92,22.92,0,0,1,134,69.71C134.43,67,134.92,64.34,135.51,61.9ZM120.62,79.75a2.57,2.57,0,0,1-2,1,2.28,2.28,0,0,1-1.85-1.06,5.14,5.14,0,0,1-.76-3,6.92,6.92,0,0,1,.94-3.93,2.89,2.89,0,0,1,2.44-1.42h.18a6.62,6.62,0,0,0-.11,1.17A6.14,6.14,0,0,0,120,75a5.21,5.21,0,0,0,1.75,2A5.15,5.15,0,0,1,120.62,79.75Zm35.8-3.42a7.35,7.35,0,0,1,.91-3.78A2.7,2.7,0,0,1,159.62,71a1.27,1.27,0,0,1,1,.43,1.51,1.51,0,0,1,.4,1.09,3,3,0,0,1-1.24,2.37,8.22,8.22,0,0,1-3.38,1.53Zm14.28,0a7.45,7.45,0,0,1,.9-3.78A2.71,2.71,0,0,1,173.89,71a1.25,1.25,0,0,1,1,.43,1.46,1.46,0,0,1,.4,1.09,3,3,0,0,1-1.23,2.37,8.35,8.35,0,0,1-3.38,1.53Z" fill="#2e241f"/><path d="M42,68.48a6.16,6.16,0,0,0-3.68-1.09,6.88,6.88,0,0,0-4,1.23A8.31,8.31,0,0,0,31.51,72a11.34,11.34,0,0,0-1,4.91,10,10,0,0,0,.2,2,7.32,7.32,0,0,1-.65.56,3.7,3.7,0,0,1-2.22.76,3.24,3.24,0,0,1-2.33-1,12.26,12.26,0,0,1-2-3.2,12.88,12.88,0,0,0-1.89-3.1,5.39,5.39,0,0,0-2.69-1.52,13.09,13.09,0,0,0,4.69-2.22,9.81,9.81,0,0,0,2.87-3.42,8.79,8.79,0,0,0,1-4,7.66,7.66,0,0,0-1.17-4.18,7.43,7.43,0,0,0-3.49-2.91A14.39,14.39,0,0,0,17,53.6,16.61,16.61,0,0,0,8.07,56a15.66,15.66,0,0,0-6,6.76A24.3,24.3,0,0,0,0,73.28a15.81,15.81,0,0,0,1,5.85,9.33,9.33,0,0,0,2.87,4,7,7,0,0,0,4.33,1.42,4.35,4.35,0,0,0,3.31-1.16A6.51,6.51,0,0,0,13,80c0-.27.17-1,.37-2.22.46-2.69.74-4.29.83-4.8a3.16,3.16,0,0,1,1.64.62,5.54,5.54,0,0,1,1.38,1.71c.46.77,1.09,2,1.89,3.63a12.23,12.23,0,0,0,3.13,4.37,6.47,6.47,0,0,0,4,1.27,7.67,7.67,0,0,0,4.22-1.13,12.5,12.5,0,0,0,1.64-1.29,6.69,6.69,0,0,0,1.39,1.37,6.3,6.3,0,0,0,3.67,1,6.92,6.92,0,0,0,4-1.2A8.53,8.53,0,0,0,44,80a11.28,11.28,0,0,0,1-5,9.2,9.2,0,0,0-.76-3.74A6.5,6.5,0,0,0,42,68.48Zm-27.15.65,1.09-6a3.42,3.42,0,0,0,0-.62q0-1.86-2.07-1.86A2.76,2.76,0,0,0,10.87,63q-.51,2.58-1.09,6.14H8.87a2,2,0,0,0-1.31.51A1.81,1.81,0,0,0,7,71a2.07,2.07,0,0,0,.44,1.31,2.07,2.07,0,0,0,1.7.58l-1,5.46a4,4,0,0,1-.51,1.53.87.87,0,0,1-.76.47,1.85,1.85,0,0,1-1.31-.84A6.76,6.76,0,0,1,4.44,77,14.61,14.61,0,0,1,4,73a21.12,21.12,0,0,1,1.5-8.43A11.34,11.34,0,0,1,9.6,59.35a11,11,0,0,1,6.26-1.78,6.93,6.93,0,0,1,4.58,1.31A4.44,4.44,0,0,1,22,62.48a6.05,6.05,0,0,1-1,3.38,6.54,6.54,0,0,1-2.58,2.33A8.74,8.74,0,0,1,14.87,69.13ZM39.65,79.28a2.42,2.42,0,0,1-2.07,1.34,2.18,2.18,0,0,1-1.82-1,5.17,5.17,0,0,1-.73-3,7.36,7.36,0,0,1,.84-3.93,2.55,2.55,0,0,1,2.18-1.35,2.12,2.12,0,0,1,1.75,1,5.23,5.23,0,0,1,.73,3A7.29,7.29,0,0,1,39.65,79.28Z" fill="#2e241f"/></svg>