<svg xmlns="http://www.w3.org/2000/svg" width="400" height="38.8" viewBox="0 0 400 38.8"><title>Artboard 1</title><path d="M9.5,18.43s0,.07-.07.11c-.38.23-.5.65-.88.84s-.91.83-1.29.91-.87.61-1.41.68-.6.46-1.21.54-.84.34-1.22.34c-.15,0-.3,0-.45,0s-.31,0-.5,0A1.56,1.56,0,0,1,2,21.77,2.54,2.54,0,0,1,1,20a8.46,8.46,0,0,1,.38-1.44c.11-.72,1.1-1.48,1.75-1.71.49-.15,1-.42,1.44-.53s.91-.57,1.45-.57c.38,0,.76,0,1.14,0,1.29,0,.83,1.14,1.14,1.67s.68.61,1.18.91C9.47,18.35,9.5,18.39,9.5,18.43Zm15.06-16a3.79,3.79,0,0,1-.91,1.52c-.5.38-.84.91-1.37,1.26s-.61.91-1.14,1.14-.84.91-1.33,1.14-1.52,1.29-2,1.29c-.08,0-.11-.08-.11-.19a6,6,0,0,1,.53-1.41,7,7,0,0,1,2-2.81c.6-.34.76-.84,1.48-1.06,1-.31.76-1.07,2.28-1.11C24.22,2.19,24.56,2.23,24.56,2.42ZM26.88.67c0-.53-.5-.49-.88-.68a1.52,1.52,0,0,0-.6-.15,2.4,2.4,0,0,0-1.11.45c-.8.54-1.18.23-2.24,1.18-.87.8-2,1.29-2.93,2.09-1.25,1.14-1.67,1.26-2.47,3-.26.61-.64,1.18-.91,1.82a5.91,5.91,0,0,1-.91,1.87,10.26,10.26,0,0,1-2.28.79c-.38.12-1.91.31-1.91.84,0,.19.42.34.58.34.49,0,.45-.72,1.48-.72.83,0,1.18-.42,1.63-.42a.14.14,0,0,1,.15.15c0,.27-.34,1-.41,1.3-.16.6-.65,1-.84,1.63s-.8.91-1,1.52c-.15.46-1.1,1.67-1.63,1.67-.19,0-.19-.26-.19-.38,0-.53.07-1,.07-1.52,0-.68-1.18-.83-1.67-1.06a1.85,1.85,0,0,0-.65-.11c-.57,0-1.14.3-1.75.3-.11,0-.22,0-.34,0-.34,0-1,.42-1.52.46A11.52,11.52,0,0,0,3,15.58c-.73.15-.84.87-1.45,1.21A3.67,3.67,0,0,0,.34,18.43,4.43,4.43,0,0,0,0,20.52c0,.64.49,1.06.68,1.59.31.73,1,.5,1.49.84a.7.7,0,0,0,.49.12,12.35,12.35,0,0,0,2.05-.27c.65-.12,1.87-.76,2.13-.76.92,0,1.52-1.1,2.25-1.1.57,0,2.32-1.9,2.85-2.32A12.43,12.43,0,0,0,14.1,16.3a20,20,0,0,1,1-1.94,6.61,6.61,0,0,0,.69-1.67,11.22,11.22,0,0,1,.53-1.22c.53-1,.49-1.18,1.44-1.71.72-.38,1.18-1.1,1.9-1.45a2.31,2.31,0,0,0,1.14-.87c.35-.49,1.26-1.06,1.75-1.6a9.28,9.28,0,0,0,1.07-1c.38-.46,1-.76,1.29-1.26a3.17,3.17,0,0,1,1.14-1.21C26.61,2.16,26.88,1.17,26.88.67ZM25.12,18.73c0-.19-.23-.23-.38-.23a1.34,1.34,0,0,0-.64.23c-.27.19-.54.12-1,.46-.61.45-1.56.3-2,.64a.56.56,0,0,1-.49.19c-.16,0-.31,0-.42,0-.27,0-.5.11-.76.11a.91.91,0,0,1-.88-.87,1.48,1.48,0,0,1,.8-1.18c.42-.19.5-.84.84-1.07a.37.37,0,0,0,.15-.34c0-.46-.3-.49-.65-.49a1.3,1.3,0,0,0-1.06.38,4.54,4.54,0,0,1-1,1.06c-.23.15-1,.88-1,1.14s.23.42.34.61a3,3,0,0,1,.27,1c.19.57,1.41,1,2,1A6.4,6.4,0,0,0,20.75,21a4.09,4.09,0,0,0,1.82-.64,5.94,5.94,0,0,1,1.3-.72C24.21,19.45,25.12,19.19,25.12,18.73Zm3.61-10c0-.27-.26-.49-.3-.8s0-1.06-.34-1.44c-.16-.15-.38-.42-.57-.42s-1.07,1.1-1.07,1.52A1.61,1.61,0,0,0,28,9.38C28.28,9.38,28.73,9.07,28.73,8.77Zm12,10c0-.23-.27-.3-.42-.3a21.4,21.4,0,0,0-2.66,1.1,5.91,5.91,0,0,1-1.94.68c-1,0-1.26-.3-1.52-1.29a2.11,2.11,0,0,1-.08-.53c0-1.11,1.25-.88,1.25-1.64,0-.42-.49-1.18-1-1.18-.79,0-1.86,1.11-2.31,1.68a13.91,13.91,0,0,1-2.86,1.9c-.15,0-.19-.08-.19-.23,0-.57.57-1,.57-1.37s-.95-1.18-1.4-1.18a1.33,1.33,0,0,0-.65.19c-.72.42-1.37.91-2.09,1.29s-1.22.54-1.79.84c-.19.08-1,.5-1,.76s.42.19.53.19a1.85,1.85,0,0,0,.87-.3,19.16,19.16,0,0,1,2.25-.76.76.76,0,0,1,.26-.12c.19,0,.69.57.69.73,0,.45-.8.79-.8,1.29s.49.68.91.68c1.9,0,2.09-1.14,3.38-1.67.46-.19,1.49-1,1.83-1s.19,1.18.42,1.52a2.49,2.49,0,0,0,2,1.37,3.92,3.92,0,0,0,1.15-.23c.45-.15.76-.57,1.21-.61.61,0,.76-.26,1.22-.53A9.5,9.5,0,0,1,40,19.34C40.26,19.23,40.68,19,40.68,18.77Zm-1.63,7.68a.75.75,0,0,1-.15.38c-.65.8-1.33,1.52-1.94,2.36a7.76,7.76,0,0,1-.72.79c-.27.31-.92.69-1.11,1a3.11,3.11,0,0,1-1,1.33c-.31.23-1.11,1.33-1.33,1.33a.17.17,0,0,1-.16-.19c0-.72,1-.8,1.11-1.67a1.17,1.17,0,0,1,.6-.95c.38-.15.69-.72,1-1s.61-.91,1-1.33.88-.76,1.26-1.22c.19-.19,1-1.06,1.29-1.06C39,26.26,39.05,26.37,39.05,26.45Zm13.57-7.72c0-.11-.11-.3-.23-.3a2.23,2.23,0,0,0-.68.26c-.42.16-.76.12-1.1.46-.12.11-1.14.34-1.41.46l-1.67.68A19.74,19.74,0,0,1,45,21.58c-.15,0-.23-.07-.23-.19,0-.64,2.47-3.23,2.47-3.84a.33.33,0,0,0-.3-.34c-.34,0-.87.53-1.26.68s-.83.69-1.1.69c-.42,0-.53.42-.87.42,0,0-.12,0-.15,0-.35,0-.95.68-1.56.68-.31,0-.8-.22-.8-.6,0-.23.57-.92.87-.92s2.09-1.52,3.31-1.52c.23,0,.42.08.65.08s.23-.19.23-.34c0-.35-.16-.73-.58-.73s-.83.12-1.25.16c-.61.07-.87,0-1.33.49a3,3,0,0,1-1.71.95c-.46,0-1.1,1.1-1.56,1.41a.6.6,0,0,0-.34.61c0,1.21,1.25,1.55,2.28,1.55S43.23,20,44,20c.08,0,.19,0,.19.15a5.94,5.94,0,0,1-.91,1.33l-1.14,1.37c-.76.91-2.82,1.71-3.39,2.51-.22.38-.83.38-1.1.79s-1.37.95-1.56,1.49S35,28.84,34.64,29.41s-1,1.11-1.18,1.56a14.17,14.17,0,0,1-1.67,2.4,3.61,3.61,0,0,0-.88,1.78.41.41,0,0,0,.46.46,3,3,0,0,0,1.64-1c.83-.84,1.74-1.6,2.62-2.39a24.28,24.28,0,0,0,3.12-3.58c.87-1.21,2-2.28,2.89-3.46a5.8,5.8,0,0,1,2.2-1.94A18.18,18.18,0,0,1,46,22c.68-.15,1.21-.72,1.9-.91s1-.61,1.56-.69a14.54,14.54,0,0,0,2.16-.91C51.86,19.42,52.62,19.11,52.62,18.73ZM63.81,8.81a6.42,6.42,0,0,1-2.17,2.74,3.7,3.7,0,0,0-1.29,1.29c-.26.34-1,.34-1.25.68s-.46.76-.84,1a3.3,3.3,0,0,0-.49.38c-.35.27-.46.31-.5.31s0,0,0-.12a.72.72,0,0,1,.16-.34A7.59,7.59,0,0,1,59,13c.5-.46.73-1.29,1.26-1.67.8-.54,2.62-2.67,3.42-2.7a.2.2,0,0,1,.11,0S63.81,8.69,63.81,8.81Zm2.28-1.45c0-.64-.3-.79-.91-.79-2.05,0-1.79,1.21-3,1.59A6,6,0,0,0,60,9.72a6.78,6.78,0,0,0-1.79,1.83c-.38.6-1,1-1.33,1.63a24.75,24.75,0,0,0-1.48,2.09A3.87,3.87,0,0,1,54,16.91c-.45.19-.68.83-1.21,1.06s-1,.69-1.6,1c-.19.12-.87.38-.87.65,0,.11.19.23.3.23a2.67,2.67,0,0,0,.53-.16c.88-.15,2.25-1.37,2.89-1.37a.44.44,0,0,1,.42.5,2.28,2.28,0,0,0,2.2,2.51A.56.56,0,0,0,57,21.2c.45-.26,1.06,0,1.94-.49.6-.38,1.4-.5,1.9-.84s1.86-.57,1.86-1.1c0-.19,0-.3-.27-.3a2,2,0,0,0-.91.3c-.42.3-1,.38-1.44.65A12.43,12.43,0,0,1,58,20.1a2.93,2.93,0,0,1-1,.23.77.77,0,0,1-.87-.76c0-.15,0-.27,0-.38,0-.57-.27-1.11-.27-1.64s.68-.95,1.18-1.18.8-.87,1.41-1.14.79-.79,1.25-1a5.39,5.39,0,0,0,1.86-1.6c.5-.68.76-.53,1.18-1s1.67-1.06,2-1.74C65.45,8.66,66.09,9,66.09,7.36Zm-.16,8.94c0,.23-.65.61-.84.8s-.49.19-.72.34c-.07,0-.19.15-.26.15s-.08,0-.08-.08.34-.45.46-.57a2,2,0,0,1,1.29-.72C65.85,16.22,65.93,16.22,65.93,16.3ZM71,18.77a.31.31,0,0,0-.34-.3c-.61,0-2.16,1.1-3,1.17s-1.45.76-2.63.76c-.68,0-1.63-.6-1.63-1.33,0-.41,1.44-.76,1.75-1.06.83-.76,2-.72,2-2.4,0-.57-.34-.64-.8-.64h-.34c-.76,0-1.44.68-2.09,1.06a3.9,3.9,0,0,0-1.44,1.41c-.54.76-.69,1.1-1.49,1.52-.11.11-.3.23-.3.42a.34.34,0,0,0,.38.3c.34,0,.42.88,1.56,1.22a3.62,3.62,0,0,1,1.14.42,1.72,1.72,0,0,0,.84.19,13.16,13.16,0,0,0,4.18-1.41A6.6,6.6,0,0,1,70,19.42C70.26,19.34,71,19.11,71,18.77ZM85.77,17.7c0,.12-.49.92-.57,1.18A2.61,2.61,0,0,1,84.52,20a2.22,2.22,0,0,1-1.26.68c-.38,0-.76-.15-.76-.57,0-.8.46-2.05,1.41-2.05.45,0,.72-.65,1.37-.65C85.43,17.4,85.77,17.55,85.77,17.7Zm17.68.61c0-.07,0-.23-.15-.23-.35,0-1.41.88-2.25.88-1.63,0-1.56-2.51-2.73-2.51a4.66,4.66,0,0,0-1.07.27c-1.06.22-.38,1-2.43,1-.5,0-1-.15-1.48-.15s-.84.27-1.34.27a1.49,1.49,0,0,1-.41-.08A14.72,14.72,0,0,0,89,17.51a4,4,0,0,1-2.55-.68,1.52,1.52,0,0,0-1.25-.46c-1.6,0-2.82.27-3.69,1.79-.3.57-1,.57-1,1.52A2.32,2.32,0,0,0,83,21.73a1.65,1.65,0,0,0,.87-.19A8.53,8.53,0,0,1,85.12,21a5,5,0,0,0,1.56-1.67c.15-.3.42-.91.84-.91.23,0,.45.07.68.07s.42,0,.65,0a4.47,4.47,0,0,1,.76.07,4.65,4.65,0,0,0,1.25.23c.27,0,.5-.11.76-.11a1.46,1.46,0,0,1,.8.19,3.41,3.41,0,0,0,.88.07h.3a.55.55,0,0,1,.19.08c-.11.68-2.28,1.4-2.28,2.58,0,.31.3.42.61.42a1.78,1.78,0,0,0,.45-.08c.58-.15.42-.49.8-.72.73-.42,1.33-1.14,2.09-1.48a4.65,4.65,0,0,0,.73-.49c.57-.46,1.37-1.18,2.09-1.18.26,0,.38.72.72.87s.61.53.91.61a2.73,2.73,0,0,0,.8.23h.15a4.61,4.61,0,0,0,.8,0,9.68,9.68,0,0,0,.88-.49C102.88,19.07,103.45,18.77,103.45,18.31Zm7.21.42c0-.19-.23-.23-.38-.23a1.38,1.38,0,0,0-.65.23c-.26.19-.53.12-1,.46s-1.55.3-2,.64a.57.57,0,0,1-.5.19c-.15,0-.3,0-.41,0-.27,0-.5.11-.76.11a.91.91,0,0,1-.88-.87,1.48,1.48,0,0,1,.8-1.18c.42-.19.49-.84.84-1.07a.37.37,0,0,0,.15-.34c0-.46-.31-.49-.65-.49a1.3,1.3,0,0,0-1.06.38,4.54,4.54,0,0,1-1,1.06c-.23.15-1,.88-1,1.14s.23.42.34.61a3,3,0,0,1,.27,1c.19.57,1.4,1,2,1a6.4,6.4,0,0,0,1.48-.42,4.09,4.09,0,0,0,1.82-.64,5.94,5.94,0,0,1,1.3-.72C109.75,19.45,110.66,19.19,110.66,18.73Zm3.61-10c0-.27-.26-.49-.3-.8s0-1.06-.34-1.44c-.16-.15-.39-.42-.58-.42S112,7.21,112,7.63a1.61,1.61,0,0,0,1.52,1.75C113.82,9.38,114.27,9.07,114.27,8.77Zm-5.13,17.68a.67.67,0,0,1-.15.38c-.64.8-1.33,1.52-1.94,2.36a6.75,6.75,0,0,1-.72.79c-.27.31-.91.69-1.1,1a3.13,3.13,0,0,1-1,1.33c-.3.23-1.1,1.33-1.33,1.33s-.15-.11-.15-.19c0-.72.95-.8,1.1-1.67a1.2,1.2,0,0,1,.61-.95c.38-.15.68-.72,1-1s.61-.91,1-1.33.88-.76,1.26-1.22c.19-.19,1-1.06,1.29-1.06S109.14,26.37,109.14,26.45Zm13.58-7.72c0-.11-.12-.3-.23-.3a2.4,2.4,0,0,0-.69.26c-.41.16-.76.12-1.1.46-.11.11-1.14.34-1.41.46l-1.67.68a19.74,19.74,0,0,1-2.55,1.29c-.15,0-.22-.07-.22-.19,0-.64,2.47-3.23,2.47-3.84a.34.34,0,0,0-.31-.34c-.34,0-.87.53-1.25.68s-.84.69-1.1.69c-.42,0-.54.42-.88.42,0,0-.11,0-.15,0-.34,0-.95.68-1.56.68-.3,0-.8-.22-.8-.6,0-.23.57-.92.88-.92s2.09-1.52,3.3-1.52c.23,0,.42.08.65.08s.23-.19.23-.34c0-.35-.15-.73-.57-.73s-.84.12-1.26.16c-.6.07-.87,0-1.33.49a3,3,0,0,1-1.71.95c-.45,0-1.1,1.1-1.56,1.41a.61.61,0,0,0-.34.61c0,1.21,1.26,1.55,2.28,1.55s1.49-.79,2.28-.79c.08,0,.19,0,.19.15a5.94,5.94,0,0,1-.91,1.33l-1.14,1.37c-.76.91-2.81,1.71-3.38,2.51-.23.38-.84.38-1.1.79s-1.37.95-1.56,1.49-1.14,1.21-1.49,1.78-1,1.11-1.17,1.56a14.23,14.23,0,0,1-1.68,2.4,3.59,3.59,0,0,0-.87,1.78.4.4,0,0,0,.45.46,3,3,0,0,0,1.64-1c.84-.84,1.75-1.6,2.62-2.39a23.7,23.7,0,0,0,3.12-3.58c.87-1.21,2-2.28,2.89-3.46a5.8,5.8,0,0,1,2.2-1.94A19,19,0,0,1,116.1,22c.69-.15,1.22-.72,1.9-.91s1-.61,1.56-.69a15.12,15.12,0,0,0,2.17-.91C122,19.42,122.72,19.11,122.72,18.73Zm7.8,0c0-.19-.23-.23-.38-.23a1.34,1.34,0,0,0-.64.23c-.27.19-.54.12-1,.46-.61.45-1.56.3-2,.64A.56.56,0,0,1,126,20c-.16,0-.31,0-.42,0-.27,0-.5.11-.76.11a.91.91,0,0,1-.88-.87,1.48,1.48,0,0,1,.8-1.18c.42-.19.5-.84.84-1.07a.37.37,0,0,0,.15-.34c0-.46-.3-.49-.65-.49a1.3,1.3,0,0,0-1.06.38,4.34,4.34,0,0,1-1,1.06c-.23.15-1,.88-1,1.14s.23.42.34.61a3,3,0,0,1,.27,1c.19.57,1.41,1,2,1a6.4,6.4,0,0,0,1.48-.42,4.17,4.17,0,0,0,1.83-.64,5.66,5.66,0,0,1,1.29-.72C129.61,19.45,130.52,19.19,130.52,18.73Zm3.61-10c0-.27-.26-.49-.3-.8s0-1.06-.34-1.44c-.15-.15-.38-.42-.57-.42s-1.07,1.1-1.07,1.52a1.61,1.61,0,0,0,1.52,1.75C133.68,9.38,134.13,9.07,134.13,8.77Zm12,10c0-.23-.27-.3-.42-.3a21.4,21.4,0,0,0-2.66,1.1,5.91,5.91,0,0,1-1.94.68c-1,0-1.26-.3-1.52-1.29a2.11,2.11,0,0,1-.08-.53c0-1.11,1.26-.88,1.26-1.64,0-.42-.5-1.18-.95-1.18-.8,0-1.87,1.11-2.32,1.68a13.91,13.91,0,0,1-2.86,1.9c-.15,0-.19-.08-.19-.23,0-.57.57-1,.57-1.37s-.95-1.18-1.4-1.18a1.33,1.33,0,0,0-.65.19c-.72.42-1.37.91-2.09,1.29s-1.22.54-1.79.84c-.19.08-1,.5-1,.76s.42.19.53.19a1.85,1.85,0,0,0,.87-.3,19.16,19.16,0,0,1,2.25-.76.76.76,0,0,1,.26-.12c.19,0,.69.57.69.73,0,.45-.8.79-.8,1.29s.49.68.91.68c1.9,0,2.09-1.14,3.39-1.67.45-.19,1.48-1,1.82-1s.19,1.18.42,1.52a2.49,2.49,0,0,0,2,1.37,3.85,3.85,0,0,0,1.14-.23c.45-.15.76-.57,1.21-.61.61,0,.76-.26,1.22-.53a9.5,9.5,0,0,1,1.52-.72C145.66,19.23,146.08,19,146.08,18.77Zm5.59.72a12.53,12.53,0,0,0-.76-1.18.35.35,0,0,0-.26-.11c-.38,0-1.22.27-1.22.72,0,.23,0,.42,0,.61s-.15.53-.15.84a3.7,3.7,0,0,1-.5,1.71,7.29,7.29,0,0,0-.87,1,7.68,7.68,0,0,1-2.7,2c-.15,0-.69.3-.69.49s.23.46.38.46c.46,0,1.64-.76,2.13-.76.23,0,.27-.19.46-.3.91-.69,1.1-.23,2.13-1.33.49-.54.53-.23.91-1,.27-.53,1.07-.53,1.07-1.67C151.64,20.44,151.67,20,151.67,19.49Zm19.81-2.2c0,.19-.54,1-.8,1h-.34c-.42,0-1,0-1-.38,0-.11.07-.15.15-.19a8.49,8.49,0,0,1,1.67-.64C171.32,17.06,171.48,17.17,171.48,17.29Zm15.13.64a.21.21,0,0,0-.23-.23c-.27,0-2.09,1.22-3.16,1.22a2.14,2.14,0,0,1-1.59-1c-.27-.3-.46-1.22-.76-1.33a.81.81,0,0,0-.46-.11c-.65,0-1.71,1-2,1a.2.2,0,0,1-.16-.07,1.61,1.61,0,0,0-1.18-.46c-1.17,0-2.31.76-3.49.76-.19,0-.57,0-.57-.3a.37.37,0,0,1,.15-.27c.26-.34.34-.87.76-1.06a9.3,9.3,0,0,0,1.63-1.33c.42-.42.35-1.07,1-1.37a18.37,18.37,0,0,0,2.66-2.24c.8-.69,1.45-2,2-2.4a9.76,9.76,0,0,0,2-2.58c0-.19-.26-.19-.38-.19-1.21,0-3.87,2.58-4.71,3.42s-1.45,1.75-2.28,2.47a18.48,18.48,0,0,0-2.17,2.43c-1,1.29-3.23,1.86-4.6,2.7a.92.92,0,0,1-.53.19c-.65,0-.76-.61-1.29-.61a.88.88,0,0,0-.84.88c0,.19,0,.38,0,.57,0,.64-1.64.83-1.64,1.29,0,.19.46.23.57.23.5,0,1.22-.65,1.9-.65.31,0,.76.57.76.91,0,.61.38.73.38,1.11a.53.53,0,0,1-.15.3c-.57.76-.8,1.71-1.4,2.47-.84,1-1.41,2.36-2.17,3.42-1.07,1.49-2.13,3-3,4.53-.5.83-.88,1.67-1.37,2.47a2,2,0,0,0-.42,1.06c0,.23.23.69.53.69s.88-.57,1.07-.73c.83-.68,1.59-1.4,2.39-2.12.46-.46.65-1.07,1.07-1.53s.49-.91.87-1.14a10.47,10.47,0,0,0,1.94-2.85,13.23,13.23,0,0,0,1-3.19,4.68,4.68,0,0,1,.8-1.86c.41-.57.83-1.18,1.33-1.75s.72-1.29,1.59-1.6a9.33,9.33,0,0,1,2-.72A10.24,10.24,0,0,1,176,18a.79.79,0,0,1,.76.8c0,.38-1.07,1.56-1.33,1.9s-1.14,1-1.14,1.29.23.34.42.34a2.86,2.86,0,0,0,.76-.23c.41-.19.91-1.14,1.33-1.52a14.81,14.81,0,0,0,1.63-1.74,3.31,3.31,0,0,1,1.6-1c.15,0,.26.15.3.3a4,4,0,0,0,2.78,1.6,5,5,0,0,0,.76-.08c.61-.07,1-.57,1.56-.72C185.81,18.85,186.61,18.35,186.61,17.93Zm2.1-1.63c0,.23-.65.61-.84.8s-.49.19-.72.34-.19.15-.27.15-.07,0-.07-.08.34-.45.45-.57a2.06,2.06,0,0,1,1.29-.72C188.63,16.22,188.71,16.22,188.71,16.3Zm5.09,2.47a.31.31,0,0,0-.34-.3c-.61,0-2.17,1.1-3,1.17s-1.44.76-2.62.76c-.68,0-1.64-.6-1.64-1.33,0-.41,1.45-.76,1.75-1.06.84-.76,2-.72,2-2.4,0-.57-.34-.64-.8-.64h-.34c-.76,0-1.45.68-2.09,1.06a4,4,0,0,0-1.45,1.41A3.56,3.56,0,0,1,183.84,19c-.11.11-.3.23-.3.42a.34.34,0,0,0,.38.3c.34,0,.41.88,1.55,1.22a3.68,3.68,0,0,1,1.15.42,1.68,1.68,0,0,0,.83.19,13,13,0,0,0,4.18-1.41,7,7,0,0,1,1.14-.68C193,19.34,193.8,19.11,193.8,18.77Zm1,2.09c0,.15-.23.34-.38.34a.28.28,0,0,1-.27-.23c0-.15.31-.26.42-.26S194.82,20.75,194.82,20.86Zm6.5-6c0-.54-.76-.65-1.14-.65a2,2,0,0,0-1.56.65c-.34.45-.57.34-.91,1-.38.88-3.77,1.86-4.72,2.66-.3.23-1.4.57-1.4.95s.26.27.41.27c.42,0,2-1,2.7-1.06s1.45-1,1.79-1c.5,0,.8-.42,1-.42s.49.42.49.65c0,.45-.3,2.13-.95,2.13-.34,0-.65,0-1,0s-.3-.15-.57-.15-.42,0-.61,0-.26,0-.38,0c-.41,0-1.59.91-1.59,1.33s.68.95,1.1.95.76-.26,1.22-.26c.11,0,.3,0,.49,0a1.26,1.26,0,0,0,.46-.07,1.5,1.5,0,0,1,.83-.38c.38-.08.8-.5,1.22-.65s.49-.64.72-.95a2.48,2.48,0,0,0,.46-1.48c0-.38-.19-.69-.19-1,0-1.1,1.14-.91,1.29-1.25S201.32,15.16,201.32,14.82ZM219.9,4.47a4.77,4.77,0,0,1-1,1.94A14.94,14.94,0,0,1,217.36,8c-.31.31-.54.69-.84,1a7.14,7.14,0,0,0-1.26,1.14c-.49.61-.95.69-1.44,1.18a5.29,5.29,0,0,1-2,1.26c-.07,0-.11,0-.11-.12a5,5,0,0,1,1-2.51c.49-.83,2.2-3.61,3.11-3.76s1.75-1.83,3.69-1.83C219.64,4.28,219.9,4.28,219.9,4.47Zm1.1-.22c0-.92-.49-1-1.25-1-1.33,0-1.75.76-2.89,1-.57.15-.76.57-1.22.87a3.9,3.9,0,0,1-.87.53c-1.52.73-4.71,6-5.47,7.57-.35.72-1.45,2.39-2.32,2.39s-.88.92-1.56,1.07-.88.57-1.37,1c-.34.26-2.59,1.48-2.59,1.63s.38.27.54.27a2.35,2.35,0,0,0,.83-.23c.65-.27,1.11-.84,1.75-1.07s.8-.57,1.29-.76a1.36,1.36,0,0,0,.42-.26.42.42,0,0,1,.08.26,1,1,0,0,1-.57,1c-.61.41-.31.91-.72,1.14a1.22,1.22,0,0,0-.8,1,.65.65,0,0,0,.72.69,4.63,4.63,0,0,0,1.79-.57c.79-.46.64-.8,1.86-1.26.53-.19,1.1-.83,1.6-.83.72,0,.79.68,1.06,1.25.46,1,.95,1.18,2,1.44h.23a12.55,12.55,0,0,0,2.2-.72c.76-.23,1.33-.8,2-1A3.35,3.35,0,0,0,219,19a.25.25,0,0,0,.15-.19c0-.23-.26-.34-.45-.34a10.11,10.11,0,0,0-1.52.64,21.84,21.84,0,0,1-2.06.8,3.28,3.28,0,0,1-1.44.42c-.72,0-1.29-.34-1.29-1.1,0-.57.34-1,.34-1.56A.72.72,0,0,0,212,17c-.65,0-1.33.76-2,.91-.84.23-1.56,1.45-2.47,1.45-.12,0-.38,0-.38-.15s.87-1,1.06-1.22a28,28,0,0,1,2.28-3.12,10.25,10.25,0,0,1,1.79-1.33,12.56,12.56,0,0,0,2.7-2.2c.42-.61,1.29-.69,1.71-1.33a3.22,3.22,0,0,1,1.41-1.37c.49-.27.76-1.1,1.29-1.48s.87-1.26,1.29-1.79A2,2,0,0,0,221,4.25Zm9.1,4.56a6.5,6.5,0,0,1-2.17,2.74,3.7,3.7,0,0,0-1.29,1.29c-.27.34-.95.34-1.25.68s-.46.76-.84,1a2.85,2.85,0,0,0-.5.38c-.34.27-.45.31-.49.31s0,0,0-.12a.83.83,0,0,1,.15-.34,7.6,7.6,0,0,1,1.6-1.67c.5-.46.72-1.29,1.26-1.67.79-.54,2.62-2.67,3.42-2.7a.22.22,0,0,1,.11,0S230.1,8.69,230.1,8.81Zm2.28-1.45c0-.64-.3-.79-.91-.79-2.05,0-1.79,1.21-3,1.59a6,6,0,0,0-2.13,1.56,6.78,6.78,0,0,0-1.79,1.83c-.38.6-1,1-1.33,1.63a24.75,24.75,0,0,0-1.48,2.09,3.94,3.94,0,0,1-1.41,1.64c-.46.19-.68.83-1.22,1.06s-1,.69-1.59,1c-.19.12-.88.38-.88.65,0,.11.19.23.31.23a2.67,2.67,0,0,0,.53-.16c.87-.15,2.24-1.37,2.89-1.37a.44.44,0,0,1,.42.5,2.28,2.28,0,0,0,2.2,2.51.52.52,0,0,0,.34-.08c.46-.26,1.07,0,1.94-.49.61-.38,1.41-.5,1.9-.84s1.87-.57,1.87-1.1c0-.19,0-.3-.27-.3a2,2,0,0,0-.91.3c-.42.3-1,.38-1.45.65a12,12,0,0,1-2.05.68,3,3,0,0,1-.95.23.77.77,0,0,1-.87-.76c0-.15,0-.27,0-.38,0-.57-.26-1.11-.26-1.64s.68-.95,1.18-1.18.79-.87,1.4-1.14.8-.79,1.26-1a5.48,5.48,0,0,0,1.86-1.6c.49-.68.76-.53,1.18-1s1.67-1.06,2-1.74C231.73,8.66,232.38,9,232.38,7.36ZM230,28.16c0,.27-.3.49-.49.61a10.24,10.24,0,0,0-1.41,1.52c-.49.57-2.85,2.39-3.08,2.81s-1.06.57-1.4.88a7.5,7.5,0,0,0-1.3,1.4c-.3.34-1.18.5-1.48.84s-.57.46-.8.72a.5.5,0,0,1-.38.19c-.15,0-.26-.07-.26-.23v-.07a.94.94,0,0,1,.45-.76c.46-.38.57-1.33,1.22-1.64a2,2,0,0,0,1.1-1c.31-.65,1-1.11,1.45-1.68s1.4-1,1.86-1.44a9.11,9.11,0,0,1,1-1c.57-.38,1.33-.45,1.86-.87a2.21,2.21,0,0,1,1.25-.42C229.78,28,230,28,230,28.16Zm12.47-12.32a.45.45,0,0,0-.49-.42,1.36,1.36,0,0,0-.69.19,3.24,3.24,0,0,1-1.44.42c-.5,0-.8.46-1.1.72-.61.54-1.41.54-2,.95a3.69,3.69,0,0,1-2.24,1.11c-.35,0-.69-.12-.69-.54a.79.79,0,0,1,.31-.6c.26-.23.15-.57.53-1,.07-.08.15-.16.15-.23,0-.27-.87-1-1.14-1a.71.71,0,0,0-.46.27c-.49.45-1.21.45-1.74.87a5,5,0,0,1-1.34.87,6,6,0,0,0-1.06.57c-.27.16-1.33.54-1.33.84s.3.31.46.31a16.56,16.56,0,0,0,2.2-.84c.57-.23.8-.65,1.56-.65a.27.27,0,0,1,.3.27c0,.3-.41.87-.41,1.52s.41.8,1,.8a13.61,13.61,0,0,0,4-1.48c.45-.23,1.06-.88,1.52-1s.76-.34,1.06-.34.31,0,.31.23a2.6,2.6,0,0,1-1.18,1.75c-.65.38-.91,1.48-1.37,1.79s-.87.95-1.25,1.14A4.73,4.73,0,0,0,234.38,24c-.38.61-1.48,1.1-2,1.78A3.09,3.09,0,0,1,230.09,27c-.19,0-.42-.12-.61-.12-.38,0-.87.5-1.29.58-.61.11-.95.64-1.52.72s-.8.68-1.3.83-1,.92-1.4,1.22-.76,1.06-1.33,1.37S221.8,33,221,33.33s-1.25,1.75-2,2.32-.68,1.18-1.06,2.05a1.16,1.16,0,0,0-.15.5c0,.53.83.6,1.21.6.54,0,1-.79,1.52-1a8.61,8.61,0,0,0,2.67-1.68c.53-.72,1.44-1.1,1.93-1.78.27-.42,1-.65,1.34-1s1-.53,1.52-1.21a6.36,6.36,0,0,1,1.67-1.68c.61-.49,1.41-1.63,1.86-1.94a.7.7,0,0,1,.38-.11.87.87,0,0,1,.91.8,3.57,3.57,0,0,1-.6,1.94c-.57.8-1.37.38-1.37,1a.28.28,0,0,0,.3.31,12.08,12.08,0,0,0,1.45-.53c.45-.12.57-.69.79-1.07a3.11,3.11,0,0,0,.69-1.6c0-.34-.61-1-.8-1.48-.11-.23-.49-.53-.49-.65,0-.3,1.14-1.36,1.36-1.59a12,12,0,0,1,1.18-1.18c.5-.3.54-.84,1.11-1.14.38-.19,1.1-1.26,1.63-1.67.8-.69,1.56-2.09,2.21-2.55.41-.3.53-1.14,1-1.37s.34-.57.64-.87S242.48,16.18,242.48,15.84Zm27,2.28a.37.37,0,0,0-.34-.34c-.19,0-1.82,1.14-2.89,1.14a.89.89,0,0,1-.87-.45,2.28,2.28,0,0,1-.12-.69c0-.46-.15-.8-.15-1.25v-.35c0-.41-.38-1.21-.87-1.21-.08,0-1.11.38-1.33.45-.73.16-.54.42-1,.8a1.7,1.7,0,0,1-.91.42c-.12,0-.19,0-.19-.19s-.61-.46-.88-.53A11.12,11.12,0,0,0,258.07,17a8,8,0,0,0-2,1.1c-.34.35-1.56.61-1.56,1.11a.31.31,0,0,0,.34.3c.27,0,.84-.42,1.22-.49s1-.65,1.29-.65.88-.76,1.45-.76c.15,0,.3.08.3.23a1.23,1.23,0,0,1-.65,1.1c-.49.31-.68.8-1.14,1.14S256,21.13,256,21.58s.38.46.65.46c1,0,1.07-.57,1.52-.91.91-.69.88-1.49,2.17-2.25.42-.22.65-.64,1.1-.8a2.35,2.35,0,0,0,1.33-.87c.15-.3.46-.91.84-.91a.45.45,0,0,1,.42.49c0,.31-.23.53-.23.84s0,.34,0,.49a.42.42,0,0,0,.19.38c.49.35.27.57.95.95a2.91,2.91,0,0,0,1.37.35,2.51,2.51,0,0,0,.76-.12,9.24,9.24,0,0,0,2.17-1.14A.55.55,0,0,0,269.43,18.12Zm2.52.5c0,.15-.34.3-.46.34-.68.3-.91,1.29-1.94,1.29-.26,0-.83-.15-.83-.49s.3-.5.38-.76a1.34,1.34,0,0,1,.64-1c.46-.19.61-.88,1.45-.88,0,0,.11,0,.11.08s0,.15,0,.23v.15a1.56,1.56,0,0,0,.31.65C271.68,18.35,272,18.43,272,18.62ZM273,17.36a.17.17,0,0,1-.19.19c-.11,0-.34-.11-.34-.26s.19-.16.27-.16A.25.25,0,0,1,273,17.36Zm5.63.91c0-.07,0-.19-.15-.19-.57,0-1.33.88-2.4.88-.64,0-1.94-.42-1.94-1.22,0-.26.19-.42.19-.53a1.31,1.31,0,0,0-.83-.84c-.5,0-.65-.6-1.14-.6a9.36,9.36,0,0,0-1.75.45c-.95.12-2.59,1.79-3.16,2.47-.26.31-.23.84-.42,1.18a.68.68,0,0,0-.11.34c0,.57,1,1.22,1.52,1.22.34,0,.65-.15,1-.15,1,0,1.41-.76,2.24-1.07a1.31,1.31,0,0,0,.91-.72,1.16,1.16,0,0,1,.61-.38,3.57,3.57,0,0,1,.84.31,6.22,6.22,0,0,0,1.86.38C276.59,19.8,278.64,19.11,278.64,18.27Zm3.83-.83c0,.38-.76.61-1,1A3.64,3.64,0,0,1,279.32,20a.6.6,0,0,1-.65-.54.81.81,0,0,1,.46-.64c.76-.42,2.13-1.83,3-1.83A.43.43,0,0,1,282.47,17.44Zm6,1.25c0-.15-.23-.22-.38-.22a5.6,5.6,0,0,0-1.67.64,14.88,14.88,0,0,1-2.66.76c-.38,0-.61-.49-.61-.83,0-.54.68-1.26.68-2,0-.49-.19-1.25-.8-1.25-.34,0-.68.15-1.06.15h-.15A5.49,5.49,0,0,0,279.35,17c-.87.5-2.39,1.56-2.39,2.66,0,.84.34,1,1.06,1.18a4.67,4.67,0,0,0,1.3.23c1,0,1.44-.72,2-.72s.57.91,1.45.91a5.59,5.59,0,0,0,1.41-.27,5.83,5.83,0,0,1,1.06-.53,23,23,0,0,0,2.89-1.29C288.21,19.07,288.44,18.88,288.44,18.69Zm.9,2.17c0,.15-.23.34-.38.34s-.27-.11-.27-.23.31-.26.42-.26S289.34,20.75,289.34,20.86Zm6.5-6c0-.54-.76-.65-1.14-.65a2,2,0,0,0-1.56.65c-.34.45-.57.34-.91,1-.38.88-3.76,1.86-4.71,2.66-.31.23-1.41.57-1.41.95s.27.27.42.27c.42,0,2-1,2.7-1.06.57-.12,1.44-1,1.78-1,.5,0,.8-.42,1-.42s.49.42.49.65c0,.45-.3,2.13-.95,2.13-.34,0-.64,0-1,0s-.31-.15-.57-.15-.42,0-.61,0-.27,0-.38,0c-.42,0-1.6.91-1.6,1.33s.68.95,1.1.95.76-.26,1.22-.26c.11,0,.3,0,.49,0a1.26,1.26,0,0,0,.46-.07,1.5,1.5,0,0,1,.84-.38c.38-.08.79-.5,1.21-.65s.5-.64.72-.95a2.48,2.48,0,0,0,.46-1.48c0-.38-.19-.69-.19-1,0-1.1,1.14-.91,1.29-1.25S295.84,15.16,295.84,14.82Zm29.08-3.54c0-.42-.27-.49-.53-.49-.5,0-.92.22-1.37.22-.61,0-1.22-.11-1.83-.11-.34,0-.64.15-1,.15s-.46,0-.73,0c-.42,0-.83.12-1.29.12s-.95-.15-1.44-.15-.69.07-1.07.07-1.1-.11-1.63-.11-.88.15-1.33.15S311.5,11,310.93,11c-.12,0-.46,0-.8,0s-.95-.07-.95-.3c0-.08.11-.08.15-.12.34-.07.8-1.1,1.26-1.4a4.63,4.63,0,0,0,1.06-1.71.58.58,0,0,0-.53-.54c-.46,0-1.14.57-1.6.76s-.76.92-1.29,1.11-.53.64-1.33.91c-1,.38-.46,1.14-2.13,1.14-.42,0-.88-.08-1.29-.08s-1,.19-1.41.19c-.84,0-1.67,0-2.47,0s-1.26,0-1.9,0c-.23,0-.46-.07-.69-.07-.42,0-.49.26-.49.61s.34.34.57.34c.49,0,1,0,1.52,0,.3,0,.27.08.57.08.15,0,.38-.12.49-.12s.27,0,.42,0c.31,0,.61-.11.91-.11h.84a4.18,4.18,0,0,1,1,.07,10,10,0,0,1,1.56.12.15.15,0,0,1,.07.11c0,.08-1.4,1.56-1.59,1.75-.65.61-1,1.41-1.83,1.9-.57.34-1,.87-1.56,1.22s-1,.79-1.52,1.14c-.3.22-1.82,1-1.82,1.29s.23.3.38.3a1.51,1.51,0,0,0,.76-.3,8.33,8.33,0,0,1,1.33-.68c.42-.16.61-.58,1-.8a5.89,5.89,0,0,0,1.37-1,5.66,5.66,0,0,1,1.25-1.14c.46-.27.23-.72,1.26-1.29a1.58,1.58,0,0,0,.64-.54l.12-.11c.07,0,.11,0,.11.08a.42.42,0,0,1-.08.26c-.26.38-1,.8-1.21,1.1-.34.5-.31.61-.91,1s-.8,1.22-1.22,1.86a.85.85,0,0,0-.12.54v1.14c0,.95,1.41,1.37,2.17,1.37a10.41,10.41,0,0,0,1.9-.35c.57-.07,1.07-.45,1.6-.53s.76-.53,1.25-.64c.27-.08,1.37-.61,1.37-.84s-.26-.3-.42-.3a4,4,0,0,0-1.48.6c-.42.23-.87.31-1.29.54a13.4,13.4,0,0,1-1.71.45,1.66,1.66,0,0,1-.61.12c-.65,0-1.25-.19-1.25-.95a3.24,3.24,0,0,1,.19-1.22c.11-.34.6-.53.79-1.07s1.07-.76,1.41-1.55,1.33-1,1.56-1.64.87-.72,1.18-1.18a2,2,0,0,1,1.48-.68H310c1.11,0,2.21-.15,3.31-.15.53,0,1.07.11,1.6.11.34,0,.61-.11.95-.11s.76.15,1.18.15c.68,0,1.37-.12,2.05-.12.42,0,.84.08,1.26.08s1,0,1.48,0h.3c.46,0,.8-.07,1.18-.07s.84.19,1.22.19S324.92,11.58,324.92,11.28Zm-12.7,5c0,.23-.64.61-.83.8s-.5.19-.72.34-.19.15-.27.15-.08,0-.08-.08.35-.45.46-.57a2,2,0,0,1,1.29-.72C312.15,16.22,312.22,16.22,312.22,16.3Zm5.1,2.47a.31.31,0,0,0-.34-.3c-.61,0-2.17,1.1-3,1.17s-1.44.76-2.62.76c-.69,0-1.64-.6-1.64-1.33,0-.41,1.45-.76,1.75-1.06.84-.76,2-.72,2-2.4,0-.57-.35-.64-.8-.64h-.34c-.76,0-1.45.68-2.09,1.06a3.85,3.85,0,0,0-1.45,1.41A3.56,3.56,0,0,1,307.36,19c-.12.11-.31.23-.31.42a.34.34,0,0,0,.38.3c.35,0,.42.88,1.56,1.22a3.53,3.53,0,0,1,1.14.42,1.72,1.72,0,0,0,.84.19,13,13,0,0,0,4.18-1.41,6.6,6.6,0,0,1,1.14-.68C316.56,19.34,317.32,19.11,317.32,18.77ZM321.61,17a1.85,1.85,0,0,1-.46,1.14c-.27.27,0,.42-.46.57s-.64.73-.87.73-.61.68-1.56.68c-.27,0-.61,0-.61-.38,0-.8,1-1,1.22-1.64.19-.49.23-.38.64-.57s.92-.64,1.34-.64a2,2,0,0,0,.53-.15C321.49,16.79,321.61,16.72,321.61,17ZM333.77,6.49c0-.49-.8-.72-1.18-.72-1,0-1.59,1.37-2.62,1.56-.65.15-1,1.29-1.71,1.59s-.91,1.33-1.67,1.64c0,0-1,1.29-1.11,1.44a11.87,11.87,0,0,1-1.33,1.83,7.49,7.49,0,0,0-.83,1.06c-.16.31-.76,1.22-1.14,1.22s-.16-.57-.76-.57c-.19,0-.42.23-.61.23-.5,0-.8.38-1.26.49-.64.15-1.1.87-1.63,1.22s-.84.76-1.29,1.06c-.23.19-.16.5-.31.76a1.05,1.05,0,0,0-.19.57,1.47,1.47,0,0,0,1.6,1.48c.68,0,1.1-.41,1.48-.41.76,0,1.6-.88,1.94-.88.57,0,.53-.57.87-.57s.35.46.38.61c.08.53.46.46.61.91s.72.38,1,.38a2.86,2.86,0,0,0,.95-.15c.53-.19,1-.42,1.52-.65s.84-.45,1.29-.57,2.06-.91,2.06-1.25c0-.15,0-.34-.16-.34a14.28,14.28,0,0,0-2.43,1,5.11,5.11,0,0,1-.95.45,1.23,1.23,0,0,1-.38,0c-.42.08-.57.42-.95.42a.86.86,0,0,1-.46-.19c-.8-.42-.61-.53-.68-1.29a4.06,4.06,0,0,1-.08-.69,1.51,1.51,0,0,1,.15-.53c.19-.38-.07-.46.31-.91s.46-1.18,1-1.37.91-1.48,1.29-1.52.83-1.18,1.37-1.26.45-1.14.91-1.18c.91-.11,1.44-1.82,2.05-2,.42-.12.46-.88.72-1.22.12-.15.84-.57,1.14-.87S333.77,6.79,333.77,6.49ZM349.7,18.81c0-.23-.26-.31-.45-.31-.8,0-1.52.88-2.17.92-.49,0-.68.3-1.06.53a8.06,8.06,0,0,1-1.22.34.73.73,0,0,1-.42.11c-.49,0-.68.12-1,.12-.5,0-.92-.34-1.22-.34-.61,0-.65-.73-.65-1.18s.16-.5.38-.57c.61-.27.8-1.11,1.49-1.11.53,0,.34.57.83.57s1-.22,1-.76-.5-1.59-1.18-1.59c-.08,0-.19,0-.3,0a3.82,3.82,0,0,0-1.68,1,15.09,15.09,0,0,1-1.25,1c-.19.15-.19.38-.38.49s-.53.42-.53.8c0,.19,0,.35,0,.5s0,.42,0,.61a1.25,1.25,0,0,0,.07.41c.27.69,2.17,1.26,2.82,1.26.34,0,.6-.19.91-.19H344c.46,0,.76-.34,1.18-.38.12,0,2-.76,2.09-.84a8.77,8.77,0,0,1,1-.57,4,4,0,0,0,1.18-.53C349.55,19.07,349.7,19,349.7,18.81Zm3.52-.19c0,.15-.34.3-.46.34-.68.3-.91,1.29-1.94,1.29-.26,0-.83-.15-.83-.49s.3-.5.38-.76a1.34,1.34,0,0,1,.64-1c.46-.19.61-.88,1.45-.88,0,0,.11,0,.11.08s0,.15,0,.23v.15a1.56,1.56,0,0,0,.31.65C353,18.35,353.22,18.43,353.22,18.62Zm1.06-1.26a.17.17,0,0,1-.19.19c-.11,0-.34-.11-.34-.26s.19-.16.27-.16A.25.25,0,0,1,354.28,17.36Zm5.63.91c0-.07,0-.19-.15-.19-.57,0-1.33.88-2.4.88-.64,0-1.94-.42-1.94-1.22,0-.26.19-.42.19-.53a1.31,1.31,0,0,0-.83-.84c-.5,0-.65-.6-1.14-.6a9.36,9.36,0,0,0-1.75.45c-.95.12-2.59,1.79-3.16,2.47-.26.31-.23.84-.42,1.18a.68.68,0,0,0-.11.34c0,.57,1,1.22,1.52,1.22.34,0,.65-.15,1-.15,1,0,1.41-.76,2.24-1.07a1.31,1.31,0,0,0,.91-.72,1.16,1.16,0,0,1,.61-.38,3.57,3.57,0,0,1,.84.31,6.22,6.22,0,0,0,1.86.38C357.86,19.8,359.91,19.11,359.91,18.27Zm7.71,4.91c0,.49-1.07,1.41-1.37,1.94a14.42,14.42,0,0,1-2.58,2.2,1.73,1.73,0,0,1-1,.35.23.23,0,0,1-.15,0,.15.15,0,0,1,0-.12c0-.07.08-.15.16-.3a14.82,14.82,0,0,1,1.18-1.56l1.1-1.37a5.29,5.29,0,0,1,.76-.83,1.35,1.35,0,0,1,1.18-.73C367.2,22.72,367.62,22.8,367.62,23.18Zm-7.68-3.84c0,.08-.11.11-.19.11s-.19,0-.19-.15a.21.21,0,0,1,.23-.19C359.86,19.11,359.94,19.23,359.94,19.34Zm8.55,2.17c0,.15-.07.53-.22.53a.71.71,0,0,1-.5-.53.53.53,0,0,1,.46-.46C368.46,21.05,368.49,21.35,368.49,21.51Zm1.14-3a.29.29,0,0,1-.07.15,1.57,1.57,0,0,1-.5.26.79.79,0,0,1-.38.16.09.09,0,0,1-.07-.08c0-.08.15-.19.19-.19a2.89,2.89,0,0,1,.61-.3s.07,0,.11,0S369.63,18.43,369.63,18.47Zm14.07,0c0-.19-.3-.23-.46-.23a27.28,27.28,0,0,0-2.77,1.37,17.39,17.39,0,0,1-1.83.92l-2.13.91a32.56,32.56,0,0,1-3.72,1.14,4.34,4.34,0,0,1-1.18.15c-.34,0-2.2-.08-2.2-.53,0-.23.6-.76.6-1.6,0-.26-.11-.49-.11-.72,0-.72,2.62-3,3.31-3.42s2.05-2,2.54-2.21a4.31,4.31,0,0,0,1.34-.83A9.77,9.77,0,0,1,379,12c.53-.34.95-.84,1.44-1.22a1.37,1.37,0,0,0,.65-1,.27.27,0,0,0-.27-.3,7.89,7.89,0,0,0-1.94.68c-1.1.46-1.14,1.22-1.86,1.71s-1.26,1.18-2.09,1.68c-.65.42-1.22.95-1.79,1.4a16.07,16.07,0,0,1-2.36,1.71c-.87.5-1.67,1.22-2.58,1.64A37.23,37.23,0,0,1,364.73,20a9.58,9.58,0,0,1-2.32.42c-.38,0-.65-.08-.65-.38a4.14,4.14,0,0,1,1.33-1.91,21.7,21.7,0,0,0,2.36-2c1.14-.91,2.21-1.94,3.31-2.93a11.55,11.55,0,0,1,2.36-1.48c.49-.23.83-.68,1.37-.87,1.4-.57,3.95-3.08,5-4.22.19-.23.54-.61.54-1s-.31-.35-.54-.35a4,4,0,0,0-1.59.5c-.57.26-1,.91-1.56,1.14-1.07.42-5.29,4.83-7,6-1.18.79-2.58.87-3.68,1.44a4.43,4.43,0,0,1-1.64.19h-.65c-.34,0-.64,0-.64.31a.49.49,0,0,0,.45.45,12.59,12.59,0,0,0,2.67-.42,4.21,4.21,0,0,1,1.1-.22c.11,0,.3,0,.3.15a30.88,30.88,0,0,1-2.43,2.28,3.66,3.66,0,0,1-2.7,1.21c-.68,0-2.05.39-2.05,1.26,0,.53.76.61.76,1.22s-2.21,2.89-2.63,3.27c-.91.83-5.09,5.62-5.09,6.72,0,.12.19.12.3.12h.19a1.63,1.63,0,0,0,1-.31,16.34,16.34,0,0,0,1.6-1.33A35.33,35.33,0,0,0,358.3,25a26.22,26.22,0,0,0,1.72-2.7c.19-.38.49-.92,1-1s1.21-.19,1.78-.27a14.34,14.34,0,0,0,2.59-.61,1.32,1.32,0,0,1,.57-.15.13.13,0,0,1,.11,0,1.22,1.22,0,0,0-.26.72,2.48,2.48,0,0,1-.69,1.83,31.08,31.08,0,0,0-2.24,2.35c-.5.57-.69,1.37-1.22,1.87-.3.3-1.21,1.14-1.21,1.59,0,.23.3.23.45.23a10.1,10.1,0,0,0,2.59-.57c.72-.34,1.18-1.14,1.86-1.41s.87-.83,1.37-1.21A6.32,6.32,0,0,0,368.38,24a1.12,1.12,0,0,1,.95-.57c.46,0,.87.15,1.37.15s.95-.08,1.4-.08c1.41,0,2.29-.64,3.58-.87A18.24,18.24,0,0,0,379,21.16a6.92,6.92,0,0,0,1.6-.76,11.29,11.29,0,0,1,2.28-1.25C383.13,19.07,383.7,18.81,383.7,18.5Zm2.92-2.2c0,.23-.64.61-.83.8s-.5.19-.72.34-.19.15-.27.15-.08,0-.08-.08.35-.45.46-.57a2,2,0,0,1,1.29-.72C386.55,16.22,386.62,16.22,386.62,16.3Zm5.1,2.47a.31.31,0,0,0-.34-.3c-.61,0-2.17,1.1-3,1.17s-1.44.76-2.62.76c-.69,0-1.64-.6-1.64-1.33,0-.41,1.45-.76,1.75-1.06.84-.76,2-.72,2-2.4,0-.57-.34-.64-.8-.64h-.34c-.76,0-1.45.68-2.09,1.06a4,4,0,0,0-1.45,1.41A3.56,3.56,0,0,1,381.76,19c-.12.11-.31.23-.31.42a.34.34,0,0,0,.38.3c.35,0,.42.88,1.56,1.22a3.53,3.53,0,0,1,1.14.42,1.72,1.72,0,0,0,.84.19,13,13,0,0,0,4.18-1.41,6.6,6.6,0,0,1,1.14-.68C391,19.34,391.72,19.11,391.72,18.77Zm3.18-2.47c0,.23-.64.61-.83.8s-.5.19-.72.34-.2.15-.27.15-.08,0-.08-.08.35-.45.46-.57a2,2,0,0,1,1.29-.72C394.83,16.22,394.9,16.22,394.9,16.3Zm5.1,2.47a.31.31,0,0,0-.34-.3c-.61,0-2.17,1.1-3,1.17s-1.44.76-2.62.76c-.69,0-1.64-.6-1.64-1.33,0-.41,1.45-.76,1.75-1.06.84-.76,2-.72,2-2.4,0-.57-.35-.64-.8-.64h-.34c-.76,0-1.45.68-2.1,1.06a3.9,3.9,0,0,0-1.44,1.41A3.56,3.56,0,0,1,390,19c-.12.11-.31.23-.31.42a.34.34,0,0,0,.38.3c.35,0,.42.88,1.56,1.22a3.53,3.53,0,0,1,1.14.42,1.72,1.72,0,0,0,.84.19,13,13,0,0,0,4.18-1.41,6.6,6.6,0,0,1,1.14-.68C399.24,19.34,400,19.11,400,18.77Z" fill="#615550"/></svg>