<svg xmlns="http://www.w3.org/2000/svg" width="61.67" height="62.22" viewBox="0 0 61.67 62.22"><title>Seed to Root</title><polygon points="10.05 41.63 7.39 41.63 30.83 3.8 54.28 41.63 51.61 41.63 52.94 43.63 57.87 43.63 30.83 0 3.79 43.63 8.73 43.63 10.05 41.63" fill="#c4c4c4"/><polygon points="16.05 41.63 14.73 43.63 46.94 43.63 45.61 41.63 16.05 41.63" fill="#c4c4c4"/><path d="M54.91,48.68H6.76L30.83,12.11Zm-44.44-2H51.2L30.83,15.75Z"/><path d="M3.74,56.93a2.44,2.44,0,0,0-.7-1,1.33,1.33,0,0,0-.84-.35,1.72,1.72,0,0,0-.39,0,1.49,1.49,0,0,0-.37.14,1,1,0,0,0-.26.25.66.66,0,0,0-.1.37.5.5,0,0,0,.21.38,2.14,2.14,0,0,0,.5.26c.2.08.4.14.6.2l.51.14.6.24a1.74,1.74,0,0,1,.53.32,1.22,1.22,0,0,1,.38.46,1.62,1.62,0,0,1,.14.7,1.93,1.93,0,0,1-.18.85,1.84,1.84,0,0,1-.48.66,2,2,0,0,1-.7.41,2.32,2.32,0,0,1-.84.15A2.67,2.67,0,0,1,1.64,61a1.49,1.49,0,0,1-.49-.24,1.43,1.43,0,0,1-.39.2,2.85,2.85,0,0,1-.63.09A8.12,8.12,0,0,1,0,60c0-.41,0-.82,0-1.24H.66a5.47,5.47,0,0,0,.28.84,1.94,1.94,0,0,0,.33.52,1.07,1.07,0,0,0,.45.28,2.15,2.15,0,0,0,.6.07c.69,0,1.05-.22,1.08-.67a.73.73,0,0,0-.25-.6,1.94,1.94,0,0,0-.6-.35,5.38,5.38,0,0,0-.8-.25,4.46,4.46,0,0,1-.8-.33,1.89,1.89,0,0,1-.61-.51,1.56,1.56,0,0,1-.24-.91A1.85,1.85,0,0,1,.64,55.5a2.24,2.24,0,0,1,1.63-.56,2.62,2.62,0,0,1,.57.07,1.58,1.58,0,0,1,.56.23l.27-.16A1.48,1.48,0,0,1,4.12,55a4.7,4.7,0,0,1,.16,1c0,.31,0,.63,0,1Zm7.11,2.52a3.23,3.23,0,0,1-1,1.26,2.46,2.46,0,0,1-1.47.45A4,4,0,0,1,7.08,61a2.72,2.72,0,0,1-1-.57,2.47,2.47,0,0,1-.63-1,3.6,3.6,0,0,1-.23-1.31,3.74,3.74,0,0,1,.23-1.35,2.74,2.74,0,0,1,1.59-1.63,3.29,3.29,0,0,1,1.18-.21,3.33,3.33,0,0,1,1.19.2,2.21,2.21,0,0,1,1.36,1.33,3,3,0,0,1,.16,1v.18a1.21,1.21,0,0,1,0,.19H7.33q-.15,0-.15.12a5.08,5.08,0,0,0,.08.89,2.52,2.52,0,0,0,.27.73,1.6,1.6,0,0,0,.48.49,1.51,1.51,0,0,0,1.65-.17,3.93,3.93,0,0,0,.74-.78ZM8.62,57.28A.53.53,0,0,0,9,57.17a.46.46,0,0,0,.14-.34,3.43,3.43,0,0,0,0-.47,1.57,1.57,0,0,0-.14-.4.7.7,0,0,0-.28-.26.76.76,0,0,0-.44-.11.79.79,0,0,0-.49.14,1,1,0,0,0-.32.36,1.87,1.87,0,0,0-.17.52,3.81,3.81,0,0,0,0,.59s.07.08.21.08Zm8.67,2.17a3.25,3.25,0,0,1-1,1.26,2.42,2.42,0,0,1-1.47.45,3.93,3.93,0,0,1-1.27-.2,2.86,2.86,0,0,1-1-.57,2.72,2.72,0,0,1-.63-1,3.83,3.83,0,0,1-.22-1.31,4,4,0,0,1,.22-1.35,2.89,2.89,0,0,1,.65-1,2.74,2.74,0,0,1,.95-.62,3.25,3.25,0,0,1,1.18-.21,3.33,3.33,0,0,1,1.19.2,2.16,2.16,0,0,1,.85.53,2.13,2.13,0,0,1,.5.8,2.75,2.75,0,0,1,.17,1v.18a1.21,1.21,0,0,1,0,.19H13.77q-.15,0-.15.12a5.08,5.08,0,0,0,.08.89,2.52,2.52,0,0,0,.27.73,1.7,1.7,0,0,0,.47.49,1.47,1.47,0,0,0,.72.17,1.41,1.41,0,0,0,.94-.34,3.93,3.93,0,0,0,.74-.78Zm-2.23-2.17a.53.53,0,0,0,.34-.11.46.46,0,0,0,.14-.34,2.34,2.34,0,0,0,0-.47,1.06,1.06,0,0,0-.14-.4.59.59,0,0,0-.28-.26.71.71,0,0,0-.43-.11.77.77,0,0,0-.49.14,1,1,0,0,0-.32.36,1.87,1.87,0,0,0-.17.52,3.81,3.81,0,0,0,0,.59s.07.08.21.08Zm9.83,3.51a10.1,10.1,0,0,0-1,.07c-.38,0-.83.12-1.33.21l-.13-.75c-.06.08-.15.17-.25.28a2.09,2.09,0,0,1-.36.26,1.92,1.92,0,0,1-.46.21,1.44,1.44,0,0,1-.51.09A3.49,3.49,0,0,1,19.76,61a2.2,2.2,0,0,1-.85-.52,2.44,2.44,0,0,1-.57-.89,4.73,4.73,0,0,1,0-2.85,2.86,2.86,0,0,1,.63-1,2.28,2.28,0,0,1,.91-.59A3.19,3.19,0,0,1,21,54.94a2.29,2.29,0,0,1,.81.14,1.46,1.46,0,0,1,.59.37V52.7q0-.36-1-.36v-.59L24,51.37A10.51,10.51,0,0,1,24,52.49c0,.37,0,.74,0,1.14v5.53c0,.71.31,1.08.92,1.12Zm-3.64-.49a1.24,1.24,0,0,0,.66-.15,1.09,1.09,0,0,0,.35-.46,2.55,2.55,0,0,0,.15-.74c0-.3,0-.64,0-1a3.78,3.78,0,0,0-.3-1.7,1,1,0,0,0-1-.58.84.84,0,0,0-.59.2,1.08,1.08,0,0,0-.32.49,2.74,2.74,0,0,0-.13.68c0,.26,0,.51,0,.76s0,.61,0,.91a3.25,3.25,0,0,0,.14.81,1.29,1.29,0,0,0,.35.59A1,1,0,0,0,21.25,60.3Zm16.08.61v-.59c.58,0,.88-.23.88-.69V56.79a.81.81,0,0,0-.93-.9v-.51L40,54.91v1.17a2.75,2.75,0,0,1,.25-.38,2.55,2.55,0,0,1,.35-.38,2.27,2.27,0,0,1,.44-.27,1.21,1.21,0,0,1,.49-.11c.74,0,1.12.34,1.12,1s-.24.87-.72.87-.64-.2-.64-.61v-.1a.53.53,0,0,1,0-.13H41.2a.79.79,0,0,0-.6.25,1.72,1.72,0,0,0-.35.61,3.48,3.48,0,0,0-.17.74c0,.25,0,.46,0,.64v1.46q0,.63,1.05.63v.59ZM49.48,58a3.49,3.49,0,0,1-.28,1.44A2.88,2.88,0,0,1,47.43,61a3.43,3.43,0,0,1-1.15.2A3.67,3.67,0,0,1,45,61a3.06,3.06,0,0,1-1-.6,2.91,2.91,0,0,1-.69-1,3,3,0,0,1-.25-1.26,3.48,3.48,0,0,1,.28-1.49,2.58,2.58,0,0,1,1.78-1.53,4.4,4.4,0,0,1,1.2-.17,3.44,3.44,0,0,1,1.2.21,2.87,2.87,0,0,1,1,.6,2.66,2.66,0,0,1,.68,1A3,3,0,0,1,49.48,58Zm-3.14,2.56A.94.94,0,0,0,47,60.3a1.26,1.26,0,0,0,.35-.53,1.86,1.86,0,0,0,.14-.66c0-.22,0-.41,0-.56s0-.6,0-.95a3.65,3.65,0,0,0-.14-1,1.75,1.75,0,0,0-.36-.75.89.89,0,0,0-.72-.3,1,1,0,0,0-.7.23,1.41,1.41,0,0,0-.37.55,2,2,0,0,0-.14.64c0,.23,0,.41,0,.55s0,.61,0,.95a4.2,4.2,0,0,0,.14,1,2,2,0,0,0,.37.75A1,1,0,0,0,46.34,60.53ZM56.53,58a3.33,3.33,0,0,1-.28,1.44,2.86,2.86,0,0,1-.74,1,3,3,0,0,1-1,.56,3.52,3.52,0,0,1-1.15.2A3.69,3.69,0,0,1,52.09,61a3.06,3.06,0,0,1-1-.6,2.91,2.91,0,0,1-.69-1,3.15,3.15,0,0,1-.25-1.26,3.63,3.63,0,0,1,.28-1.49,2.58,2.58,0,0,1,1.78-1.53,4.4,4.4,0,0,1,1.2-.17,3.5,3.5,0,0,1,1.21.21,2.92,2.92,0,0,1,1,.6,2.81,2.81,0,0,1,.69,1A3,3,0,0,1,56.53,58Zm-3.14,2.56a1,1,0,0,0,.68-.23,1.37,1.37,0,0,0,.35-.53,2.1,2.1,0,0,0,.14-.66c0-.22,0-.41,0-.56s0-.6,0-.95a4.11,4.11,0,0,0-.14-1,1.89,1.89,0,0,0-.37-.75.87.87,0,0,0-.71-.3,1,1,0,0,0-.7.23,1.33,1.33,0,0,0-.38.55,2.82,2.82,0,0,0-.14.64c0,.23,0,.41,0,.55s0,.61,0,.95a5.66,5.66,0,0,0,.14,1,1.9,1.9,0,0,0,.38.75A1,1,0,0,0,53.39,60.53Zm8.28-1.16a1.34,1.34,0,0,1-.2.72,1.61,1.61,0,0,1-.49.55,2.23,2.23,0,0,1-.71.34,2.74,2.74,0,0,1-1.46,0,2,2,0,0,1-.53-.25,1.47,1.47,0,0,1-.38-.45,1.39,1.39,0,0,1-.14-.63v-3.8h-.89l.07-.57a2.3,2.3,0,0,0,.64-.24,3.9,3.9,0,0,0,.63-.46,3,3,0,0,0,.5-.63,2.12,2.12,0,0,0,.31-.73l.58-.08v2h1a2.5,2.5,0,0,0,.35,0l.36-.1v.82H59.6v3.78a.6.6,0,0,0,.07.27.59.59,0,0,0,.16.2.83.83,0,0,0,.35.07.92.92,0,0,0,.65-.28,1.36,1.36,0,0,0,.35-.72Z"/><path d="M29.87,59.37a1.34,1.34,0,0,1-.2.72,1.61,1.61,0,0,1-.49.55,2.34,2.34,0,0,1-.71.34,2.81,2.81,0,0,1-.82.12A2.74,2.74,0,0,1,27,61a1.85,1.85,0,0,1-.53-.25,1.47,1.47,0,0,1-.38-.45,1.39,1.39,0,0,1-.14-.63v-3.8h-.9l.07-.57a2.36,2.36,0,0,0,.65-.24,3.9,3.9,0,0,0,.63-.46,3.38,3.38,0,0,0,.5-.63,2.33,2.33,0,0,0,.31-.73l.57-.08v2h1a2.5,2.5,0,0,0,.35,0l.36-.1v.82H27.79v3.78a1.07,1.07,0,0,0,.07.27.79.79,0,0,0,.17.2.83.83,0,0,0,.35.07.94.94,0,0,0,.65-.28,1.36,1.36,0,0,0,.35-.72ZM36.53,58a3.33,3.33,0,0,1-.28,1.44,3,3,0,0,1-.74,1,2.94,2.94,0,0,1-1,.56,3.42,3.42,0,0,1-1.14.2A3.69,3.69,0,0,1,32.09,61a3.06,3.06,0,0,1-1-.6,2.91,2.91,0,0,1-.69-1,3,3,0,0,1-.25-1.26,3.48,3.48,0,0,1,.28-1.49,2.58,2.58,0,0,1,1.78-1.53,4.4,4.4,0,0,1,1.2-.17,3.54,3.54,0,0,1,1.21.21,2.92,2.92,0,0,1,1,.6,2.81,2.81,0,0,1,.69,1A3.15,3.15,0,0,1,36.53,58Zm-3.14,2.56a.92.92,0,0,0,.67-.23,1.26,1.26,0,0,0,.35-.53,1.66,1.66,0,0,0,.14-.66c0-.22,0-.41,0-.56s0-.6,0-.95a3.27,3.27,0,0,0-.14-1,1.75,1.75,0,0,0-.36-.75.89.89,0,0,0-.71-.3,1,1,0,0,0-.7.23,1.33,1.33,0,0,0-.38.55,2.37,2.37,0,0,0-.14.64c0,.23,0,.41,0,.55s0,.61,0,.95a4.82,4.82,0,0,0,.14,1,1.9,1.9,0,0,0,.38.75A.94.94,0,0,0,33.39,60.53Z" fill="#898989"/></svg>
